<svg width="40" height="40" viewBox="0 0 40 40" fill="none" xmlns="http://www.w3.org/2000/svg">
<circle cx="20" cy="20" r="20" fill="url(#paint0_linear)"/>
<path d="M20 25.2499C19.8273 25.2499 19.6628 25.1729 19.552 25.0399C15.4932 20.1679 15.4932 14.5808 19.552 9.70878C19.7725 9.44278 20.2263 9.44278 20.448 9.70878C24.5068 14.5808 24.5068 20.1679 20.448 25.0399C20.3372 25.1729 20.1727 25.2499 20 25.2499ZM20 11.0201C16.8792 15.1408 16.8792 19.6091 20 23.7298C23.1208 19.6091 23.1208 15.1408 20 11.0201Z" fill="white"/>
<path d="M19.9999 30.4998C19.8273 30.4998 19.6628 30.4228 19.5519 30.2898C18.5976 29.1442 17.8556 27.9343 17.3481 26.6953C17.2268 26.3967 17.3691 26.056 17.6666 25.9347C17.9653 25.8133 18.3059 25.9557 18.4273 26.2532C18.8064 27.1818 19.3338 28.0953 19.9988 28.9773C20.6626 28.0953 21.1899 27.1818 21.5703 26.2532C21.6916 25.9557 22.0323 25.8122 22.3309 25.9347C22.6296 26.056 22.7719 26.3967 22.6494 26.6953C22.1419 27.9343 21.4011 29.1442 20.4456 30.2898C20.3371 30.4228 20.1726 30.4998 19.9999 30.4998V30.4998Z" fill="white"/>
<path d="M20.0105 25.2383C19.713 25.2383 19.4587 25.0108 19.4307 24.7086C19.4015 24.3878 19.6372 24.1031 19.958 24.074C25.502 23.5606 28.5505 20.7245 29.2563 15.4115C26.7037 15.7556 24.7028 16.6516 23.2982 18.0761C23.0695 18.306 22.6997 18.3083 22.4733 18.082C22.2435 17.8556 22.2412 17.487 22.4663 17.2571C24.1988 15.5001 26.6873 14.4618 29.8642 14.169C30.0333 14.1503 30.2072 14.2145 30.3297 14.337C30.451 14.4595 30.514 14.6298 30.4988 14.8025C29.926 21.1386 26.4155 24.648 20.0665 25.236C20.0467 25.2383 20.028 25.2383 20.0105 25.2383V25.2383Z" fill="white"/>
<path d="M26.4236 28.1735C24.1603 28.1735 21.8958 27.3136 19.6453 25.5916C19.3886 25.3968 19.3408 25.0305 19.5356 24.7738C19.7328 24.5171 20.098 24.4705 20.3535 24.6653C24.4321 27.785 28.4035 27.7896 32.481 24.6746C30.6295 23.2653 28.7756 22.493 26.9615 22.374C26.6406 22.353 26.398 22.0753 26.4178 21.7533C26.44 21.4325 26.6873 21.1875 27.0385 21.2096C29.2866 21.3566 31.5581 22.3716 33.7888 24.2243C33.923 24.3351 34 24.4996 34 24.6723C34 24.8461 33.9241 25.0106 33.79 25.1215C31.3481 27.1561 28.8853 28.1735 26.4236 28.1735V28.1735Z" fill="white"/>
<path d="M13.5763 28.1735C11.1147 28.1735 8.65183 27.1562 6.21 25.1215C6.07583 25.0107 6 24.8462 6 24.6724C6 24.4997 6.077 24.3352 6.21117 24.2244C8.44183 22.3717 10.7133 21.3567 12.9615 21.2097C13.3068 21.1852 13.5612 21.4325 13.5822 21.7534C13.6032 22.0742 13.3605 22.353 13.0385 22.374C11.2232 22.493 9.36933 23.2665 7.519 24.6747C11.5942 27.7897 15.5678 27.785 19.6465 24.6654C19.902 24.4705 20.2683 24.5172 20.4643 24.7739C20.6592 25.0294 20.6113 25.3957 20.3547 25.5917C18.1042 27.3125 15.8408 28.1735 13.5763 28.1735V28.1735Z" fill="white"/>
<path d="M19.9895 25.2383C19.9708 25.2383 19.9533 25.2383 19.9346 25.236C13.5856 24.648 10.0751 21.1375 9.5023 14.8025C9.48597 14.631 9.54897 14.4595 9.67147 14.337C9.79397 14.2145 9.96313 14.1503 10.137 14.169C13.3138 14.4606 15.8011 15.5001 17.5348 17.2571C17.76 17.487 17.7576 17.8556 17.5278 18.082C17.3003 18.3083 16.9305 18.306 16.703 18.0761C15.2983 16.6516 13.2963 15.7568 10.7436 15.4115C11.4483 20.7245 14.498 23.5606 20.042 24.074C20.3628 24.1031 20.5996 24.3878 20.5693 24.7086C20.5413 25.0108 20.287 25.2383 19.9895 25.2383V25.2383Z" fill="white"/>
<defs>
<linearGradient id="paint0_linear" x1="3.94444" y1="3.4963" x2="41.4343" y2="11.2644" gradientUnits="userSpaceOnUse">
<stop stop-color="#3B1B74"/>
<stop offset="1" stop-color="#230D49"/>
</linearGradient>
</defs>
</svg>
