<svg width="32" height="32" viewBox="0 0 32 32" fill="none" xmlns="http://www.w3.org/2000/svg">
<g clip-path="url(#clip0)">
<path d="M16 22.0001C15.8027 22.0001 15.6147 21.9121 15.488 21.7601C10.8494 16.1921 10.8494 9.80674 15.488 4.23874C15.74 3.93474 16.2587 3.93474 16.512 4.23874C21.1507 9.80674 21.1507 16.1921 16.512 21.7601C16.3854 21.9121 16.1974 22.0001 16 22.0001ZM16 5.73741C12.4334 10.4467 12.4334 15.5534 16 20.2627C19.5667 15.5534 19.5667 10.4467 16 5.73741Z" fill="white"/>
<path d="M16 28C15.8027 28 15.6147 27.912 15.488 27.76C14.3973 26.4507 13.5493 25.068 12.9693 23.652C12.8307 23.3107 12.9933 22.9214 13.3333 22.7827C13.6747 22.644 14.064 22.8067 14.2027 23.1467C14.636 24.208 15.2387 25.252 15.9987 26.26C16.7573 25.252 17.36 24.208 17.7947 23.1467C17.9333 22.8067 18.3227 22.6427 18.664 22.7827C19.0053 22.9214 19.168 23.3107 19.028 23.652C18.448 25.068 17.6013 26.4507 16.5093 27.76C16.3853 27.912 16.1973 28 16 28Z" fill="white"/>
<path d="M16.012 21.9866C15.672 21.9866 15.3813 21.7266 15.3493 21.3813C15.316 21.0146 15.5853 20.6893 15.952 20.6559C22.288 20.0693 25.772 16.8279 26.5787 10.7559C23.6613 11.1493 21.3747 12.1733 19.7693 13.8013C19.508 14.0639 19.0853 14.0666 18.8267 13.8079C18.564 13.5493 18.5613 13.1279 18.8187 12.8653C20.7987 10.8573 23.6427 9.67059 27.2733 9.33592C27.4667 9.31459 27.6653 9.38792 27.8053 9.52792C27.944 9.66792 28.016 9.86259 27.9987 10.0599C27.344 17.3013 23.332 21.3119 16.076 21.9839C16.0533 21.9866 16.032 21.9866 16.012 21.9866Z" fill="white"/>
<path d="M23.3413 25.3414C20.7547 25.3414 18.1667 24.3587 15.5947 22.3907C15.3013 22.168 15.2467 21.7494 15.4693 21.456C15.6947 21.1627 16.112 21.1094 16.404 21.332C21.0653 24.8974 25.604 24.9027 30.264 21.3427C28.148 19.732 26.0293 18.8494 23.956 18.7134C23.5893 18.6894 23.312 18.372 23.3347 18.004C23.36 17.6374 23.6427 17.3574 24.044 17.3827C26.6133 17.5507 29.2093 18.7107 31.7587 20.828C31.912 20.9547 32 21.1427 32 21.34C32 21.5387 31.9133 21.7267 31.76 21.8534C28.9693 24.1787 26.1547 25.3414 23.3413 25.3414Z" fill="white"/>
<path d="M8.65867 25.3414C5.84533 25.3414 3.03067 24.1788 0.24 21.8534C0.0866667 21.7268 0 21.5388 0 21.3401C0 21.1428 0.088 20.9548 0.241333 20.8281C2.79067 18.7108 5.38667 17.5508 7.956 17.3828C8.35067 17.3548 8.64133 17.6374 8.66533 18.0041C8.68933 18.3708 8.412 18.6894 8.044 18.7134C5.96933 18.8494 3.85067 19.7334 1.736 21.3428C6.39333 24.9028 10.9347 24.8974 15.596 21.3321C15.888 21.1094 16.3067 21.1628 16.5307 21.4561C16.7533 21.7481 16.6987 22.1668 16.4053 22.3908C13.8333 24.3574 11.2467 25.3414 8.65867 25.3414Z" fill="white"/>
<path d="M15.988 21.9866C15.9667 21.9866 15.9467 21.9866 15.9253 21.9839C8.66933 21.3119 4.65733 17.2999 4.00266 10.0599C3.984 9.86392 4.056 9.66792 4.196 9.52792C4.336 9.38792 4.52933 9.31459 4.728 9.33592C8.35866 9.66926 11.2013 10.8573 13.1827 12.8653C13.44 13.1279 13.4373 13.5493 13.1747 13.8079C12.9147 14.0666 12.492 14.0639 12.232 13.8013C10.6267 12.1733 8.33866 11.1506 5.42133 10.7559C6.22666 16.8279 9.712 20.0693 16.048 20.6559C16.4147 20.6893 16.6853 21.0146 16.6507 21.3813C16.6187 21.7266 16.328 21.9866 15.988 21.9866Z" fill="white"/>
</g>
<defs>
<clipPath id="clip0">
<rect width="32" height="32" fill="white"/>
</clipPath>
</defs>
</svg>
