<svg width="24" height="24" viewBox="0 0 24 24" fill="none" xmlns="http://www.w3.org/2000/svg">
<rect x="3" y="4" width="18" height="18" rx="2" stroke="white" stroke-width="1.5"/>
<path d="M7.23853 13.9237V16.9688L11.9924 18.8064L16.7614 16.9688V13.9237" stroke="white" stroke-linecap="round" stroke-linejoin="round"/>
<path d="M7.48022 11.5339L10.2523 10.468M16.5074 11.5339L13.7337 10.468" stroke="white" stroke-linecap="round" stroke-linejoin="round"/>
<path d="M12 18.8064V13.3647" stroke="white" stroke-linejoin="round"/>
<path d="M6.10486 13.3648L7.46527 11.5509L12 13.3648L10.6396 15.1787L6.10486 13.3648Z" stroke="white" stroke-linejoin="round"/>
<path d="M17.8951 13.3648L16.5347 11.5509L12 13.3648L13.3604 15.1787L17.8951 13.3648Z" stroke="white" stroke-linejoin="round"/>
<path d="M12 11.551V8.37671" stroke="white" stroke-linecap="round" stroke-linejoin="round"/>
<path d="M11.093 8.83016L12 7.92322L12.9069 8.83016" stroke="white" stroke-linecap="round" stroke-linejoin="round"/>
<path d="M8 2V6" stroke="white" stroke-width="1.5" stroke-linecap="round" stroke-linejoin="round"/>
<path d="M16 2V6" stroke="white" stroke-width="1.5" stroke-linecap="round" stroke-linejoin="round"/>
</svg>
