<svg width="24" height="24" viewBox="0 0 24 24" fill="none" xmlns="http://www.w3.org/2000/svg">
<path fill-rule="evenodd" clip-rule="evenodd" d="M15.3281 3.37678C14.9509 2.98392 14.4299 2.76185 13.8853 2.76185H8.08474C7.6539 2.76019 6.95169 2.75986 6.26518 2.76006C5.15498 2.76039 4.25931 3.66606 4.26103 4.77626C4.26206 5.43338 4.26007 6.09513 4.25074 6.49085V17.2039C4.24082 17.6599 4.23904 18.4009 4.24039 19.1159C4.24247 20.2201 5.14552 21.1069 6.24971 21.1052C6.9177 21.1042 7.59317 21.106 7.99274 21.1149C8.02374 21.1149 8.05374 21.1159 8.08474 21.1149H16.0737C16.4937 21.0978 17.1381 21.0938 17.7737 21.0954C18.8896 21.0981 19.8051 20.2016 19.8058 19.0857C19.8062 18.3585 19.8057 17.6169 19.8027 17.2039V8.84247C19.8027 8.32616 19.6031 7.82986 19.2455 7.4574L15.3281 3.37678Z" stroke="white" stroke-width="1.5" stroke-linecap="round" stroke-linejoin="round"/>
<path d="M14.4751 2.75V5.659C14.4751 7.079 15.6231 8.23 17.0431 8.234H19.7981" stroke="white" stroke-width="1.5" stroke-linecap="round" stroke-linejoin="round"/>
<path d="M14.2881 15.3585H8.88806" stroke="white" stroke-width="1.5" stroke-linecap="round" stroke-linejoin="round"/>
<path d="M12.2431 11.606H8.88708" stroke="white" stroke-width="1.5" stroke-linecap="round" stroke-linejoin="round"/>
<path fill-rule="evenodd" clip-rule="evenodd" d="M19.7985 8.98425H17.0435C15.2135 8.97925 13.7255 7.48724 13.7255 5.65924V2.75024C13.7255 2.33624 14.0615 2.00024 14.4755 2.00024C14.8895 2.00024 15.2255 2.33624 15.2255 2.75024V5.65924C15.2255 6.66324 16.0425 7.48125 17.0455 7.48424H19.7985C20.2125 7.48424 20.5485 7.82025 20.5485 8.23425C20.5485 8.64825 20.2125 8.98425 19.7985 8.98425Z" fill="white"/>
<path fill-rule="evenodd" clip-rule="evenodd" d="M14.2887 16.1084H8.88867C8.47467 16.1084 8.13867 15.7724 8.13867 15.3584C8.13867 14.9444 8.47467 14.6084 8.88867 14.6084H14.2887C14.7027 14.6084 15.0387 14.9444 15.0387 15.3584C15.0387 15.7724 14.7027 16.1084 14.2887 16.1084Z" fill="white"/>
<path fill-rule="evenodd" clip-rule="evenodd" d="M12.2437 12.3563H8.8877C8.4737 12.3563 8.1377 12.0203 8.1377 11.6063C8.1377 11.1923 8.4737 10.8563 8.8877 10.8563H12.2437C12.6577 10.8563 12.9937 11.1923 12.9937 11.6063C12.9937 12.0203 12.6577 12.3563 12.2437 12.3563Z" fill="white"/>
</svg>
