<svg width="24" height="24" viewBox="0 0 24 24" fill="none" xmlns="http://www.w3.org/2000/svg">
<path d="M16.6456 10.4058C16.4622 10.6995 16.572 11.1072 16.9162 11.1456C17.0255 11.1577 17.1366 11.164 17.2492 11.164C18.8927 11.164 20.2251 9.83164 20.2251 8.18809C20.2251 6.54455 18.8927 5.21219 17.2492 5.21219C17.234 5.21219 17.2189 5.21231 17.2037 5.21253C16.8572 5.21772 16.7084 5.61307 16.8627 5.92343C17.1691 6.54005 17.3414 7.2351 17.3414 7.97039C17.3414 8.86459 17.0866 9.69927 16.6456 10.4058Z" fill="white"/>
<path d="M20.5748 16.6907C20.6726 17.0012 20.9957 17.2304 21.2927 17.0971C22.125 16.7238 22.6297 16.1899 22.6297 15.4906C22.6297 13.9628 20.2205 12.2237 17.249 12.2237C16.919 12.2237 16.5959 12.2452 16.2823 12.2854C15.7826 12.3495 15.8107 13.0021 16.2876 13.1642C18.5094 13.9194 20.1388 15.3064 20.5748 16.6907Z" fill="white"/>
<path d="M6.3805 11.164C6.49308 11.164 6.6042 11.1577 6.71353 11.1456C7.0577 11.1072 7.16751 10.6995 6.98413 10.4058C6.54313 9.69927 6.28829 8.86459 6.28829 7.97039C6.28829 7.2351 6.4606 6.54006 6.76704 5.92343C6.92128 5.61307 6.77249 5.21772 6.42595 5.21253C6.41083 5.21231 6.39568 5.21219 6.3805 5.21219C4.73696 5.21219 3.4046 6.54455 3.4046 8.18809C3.4046 9.83164 4.73696 11.164 6.3805 11.164Z" fill="white"/>
<path d="M1 15.4906C1 16.1899 1.50471 16.7238 2.33703 17.0971C2.63404 17.2304 2.95706 17.0012 3.05487 16.6907C3.49094 15.3064 5.12034 13.9194 7.34205 13.1642C7.81898 13.0021 7.84706 12.3495 7.34742 12.2854C7.03381 12.2452 6.71072 12.2237 6.3807 12.2237C3.40918 12.2237 1 13.9628 1 15.4906Z" fill="white"/>
<path d="M15.0884 7.97052C15.0884 9.74909 13.6465 11.1909 11.868 11.1909C10.0894 11.1909 8.64758 9.74909 8.64758 7.97052C8.64758 6.19194 10.0894 4.75012 11.868 4.75012C13.6465 4.75012 15.0884 6.19194 15.0884 7.97052ZM11.8678 19.9866C9.93217 19.9866 8.24045 19.7443 7.06172 19.2897C5.84671 18.8211 5.43933 18.2493 5.43933 17.7134C5.43933 17.0748 5.98034 16.1827 7.19733 15.4006C8.37279 14.6452 10.0261 14.1048 11.8678 14.1048C13.7094 14.1048 15.3628 14.6452 16.5384 15.4006C17.7555 16.1828 18.2966 17.0748 18.2966 17.7134C18.2966 18.2493 17.8892 18.821 16.674 19.2897C15.4952 19.7443 13.8034 19.9866 11.8678 19.9866Z" stroke="white" stroke-width="1.5"/>
</svg>
