<svg width="82" height="40" viewBox="0 0 82 40" fill="none" xmlns="http://www.w3.org/2000/svg">
<path d="M43.9513 8.90663H48.1314V30.24H43.9513V8.90663Z" fill="white"/>
<path d="M60.5544 18.72C59.9238 18.4965 59.3543 18.3847 58.8457 18.3847C58.1338 18.3847 57.5337 18.5777 57.0455 18.9638C56.5777 19.3295 56.2624 19.807 56.0997 20.3962V30.24H52.1332V15.0019H55.2149L55.6725 17.0133H55.7946C56.1404 16.2616 56.6082 15.6825 57.1981 15.2762C57.788 14.8698 58.4796 14.6666 59.2729 14.6666C59.8018 14.6666 60.4018 14.7784 61.0731 15.0019L60.5544 18.72Z" fill="white"/>
<path d="M63.1963 15.0019H67.1628V30.24H63.1963V15.0019ZM62.6165 10.7047C62.6165 10.1155 62.8301 9.61775 63.2573 9.21139C63.7048 8.78473 64.315 8.5714 65.088 8.5714C65.8609 8.5714 66.4813 8.78473 66.9492 9.21139C67.4374 9.61775 67.6815 10.1155 67.6815 10.7047C67.6815 11.2939 67.4374 11.7917 66.9492 12.1981C66.4813 12.5841 65.8609 12.7771 65.088 12.7771C64.315 12.7771 63.7048 12.5841 63.2573 12.1981C62.8301 11.7917 62.6165 11.2939 62.6165 10.7047Z" fill="white"/>
<path d="M77.3401 26.0343C77.3401 25.6279 77.1672 25.3028 76.8214 25.059C76.4756 24.8152 76.0484 24.5917 75.5399 24.3885C75.0314 24.1854 74.472 23.9822 73.8617 23.779C73.2515 23.5555 72.6921 23.2609 72.1836 22.8952C71.6751 22.5092 71.2479 22.0317 70.9021 21.4628C70.5563 20.8736 70.3834 20.1219 70.3834 19.2076C70.3834 17.7041 70.8309 16.5562 71.7259 15.7638C72.6209 14.9714 73.9126 14.5752 75.6009 14.5752C76.7603 14.5752 77.8079 14.6971 78.7436 14.9409C79.6793 15.1847 80.4116 15.459 80.9404 15.7638L80.0556 18.6285C79.5878 18.4457 78.9979 18.2527 78.2859 18.0495C77.574 17.8463 76.8519 17.7447 76.1196 17.7447C74.9398 17.7447 74.3499 18.2019 74.3499 19.1162C74.3499 19.4819 74.5228 19.7765 74.8686 20C75.2144 20.2235 75.6416 20.4368 76.1501 20.64C76.6586 20.8228 77.218 21.026 77.8283 21.2495C78.4385 21.473 78.9979 21.7676 79.5064 22.1333C80.0149 22.4787 80.4421 22.9358 80.7879 23.5047C81.1337 24.0736 81.3066 24.805 81.3066 25.699C81.3066 27.2431 80.8082 28.4622 79.8115 29.3562C78.8351 30.2298 77.3604 30.6666 75.3873 30.6666C74.3092 30.6666 73.2922 30.5244 72.3362 30.24C71.4005 29.9758 70.6377 29.6609 70.0478 29.2952L71.1462 26.339C71.6141 26.6031 72.2345 26.8673 73.0074 27.1314C73.7804 27.3752 74.5737 27.4971 75.3873 27.4971C75.9772 27.4971 76.4451 27.3854 76.7909 27.1619C77.157 26.9384 77.3401 26.5625 77.3401 26.0343Z" fill="white"/>
<g clip-path="url(#clip0)">
<path d="M17.8562 26.4285C17.6446 26.4285 17.4429 26.3343 17.307 26.1714C12.3313 20.2057 12.3313 13.3643 17.307 7.39855C17.5773 7.07284 18.1337 7.07284 18.4054 7.39855C23.3812 13.3643 23.3812 20.2057 18.4054 26.1714C18.2696 26.3343 18.0679 26.4285 17.8562 26.4285ZM17.8562 9.00427C14.0304 14.05 14.0304 19.5214 17.8562 24.5671C21.6821 19.5214 21.6821 14.05 17.8562 9.00427Z" fill="white"/>
<path d="M17.8562 32.8572C17.6445 32.8572 17.4429 32.7629 17.307 32.6C16.137 31.1972 15.2274 29.7157 14.6053 28.1986C14.4565 27.8329 14.631 27.4157 14.9957 27.2672C15.3619 27.1186 15.7795 27.2929 15.9282 27.6572C16.3931 28.7943 17.0395 29.9129 17.8548 30.9929C18.6686 29.9129 19.315 28.7943 19.7813 27.6572C19.93 27.2929 20.3477 27.1172 20.7138 27.2672C21.0799 27.4157 21.2544 27.8329 21.1042 28.1986C20.4821 29.7157 19.5739 31.1972 18.4025 32.6C18.2695 32.7629 18.0679 32.8572 17.8562 32.8572Z" fill="white"/>
<path d="M17.8691 26.4143C17.5044 26.4143 17.1926 26.1357 17.1583 25.7657C17.1225 25.3729 17.4114 25.0243 17.8047 24.9886C24.6012 24.36 28.3384 20.8872 29.2037 14.3814C26.0743 14.8029 23.6215 15.9 21.8995 17.6443C21.6192 17.9257 21.1658 17.9286 20.8883 17.6514C20.6066 17.3743 20.6037 16.9229 20.8797 16.6414C23.0036 14.49 26.0543 13.2186 29.9488 12.86C30.1562 12.8372 30.3693 12.9157 30.5195 13.0657C30.6682 13.2157 30.7455 13.4243 30.7269 13.6357C30.0246 21.3943 25.7211 25.6915 17.9377 26.4115C17.9134 26.4143 17.8905 26.4143 17.8691 26.4143Z" fill="white"/>
<path d="M25.731 30.0086C22.9564 30.0086 20.1803 28.9557 17.4214 26.8471C17.1067 26.6086 17.0481 26.16 17.2869 25.8457C17.5287 25.5314 17.9763 25.4743 18.2895 25.7129C23.2896 29.5329 28.1581 29.5386 33.1568 25.7243C30.887 23.9986 28.6144 23.0529 26.3904 22.9071C25.9971 22.8814 25.6996 22.5414 25.7239 22.1471C25.7511 21.7543 26.0543 21.4543 26.4848 21.4814C29.2408 21.6614 32.0255 22.9043 34.7601 25.1729C34.9246 25.3086 35.019 25.51 35.019 25.7214C35.019 25.9343 34.926 26.1357 34.7615 26.2714C31.7681 28.7629 28.7488 30.0086 25.731 30.0086Z" fill="white"/>
<path d="M9.98135 30.0086C6.96356 30.0086 3.94434 28.7629 0.950862 26.2715C0.786386 26.1357 0.69342 25.9343 0.69342 25.7215C0.69342 25.51 0.787816 25.3086 0.952293 25.1729C3.6869 22.9043 6.47156 21.6615 9.22762 21.4815C9.65097 21.4515 9.96276 21.7543 9.9885 22.1472C10.0142 22.54 9.71676 22.8815 9.32201 22.9072C7.09657 23.0529 4.82393 24 2.55558 25.7243C7.55139 29.5386 12.4228 29.5329 17.4229 25.7129C17.7361 25.4743 18.1852 25.5315 18.4254 25.8457C18.6643 26.1586 18.6057 26.6072 18.291 26.8472C15.5321 28.9543 12.7574 30.0086 9.98135 30.0086Z" fill="white"/>
<path d="M17.8433 26.4143C17.8204 26.4143 17.799 26.4143 17.7761 26.4115C9.99276 25.6915 5.68919 21.3929 4.98694 13.6357C4.96692 13.4257 5.04415 13.2157 5.19433 13.0657C5.3445 12.9157 5.55189 12.8372 5.76499 12.86C9.65951 13.2172 12.7088 14.49 14.8341 16.6414C15.1101 16.9229 15.1073 17.3743 14.8255 17.6514C14.5466 17.9286 14.0932 17.9257 13.8143 17.6443C12.0923 15.9 9.63806 14.8043 6.50871 14.3814C7.37257 20.8872 11.1112 24.36 17.9077 24.9886C18.301 25.0243 18.5913 25.3729 18.5541 25.7657C18.5198 26.1357 18.208 26.4143 17.8433 26.4143Z" fill="white"/>
</g>
<defs>
<clipPath id="clip0">
<rect width="34.3256" height="34.2857" fill="white" transform="translate(0.69342 2.85715)"/>
</clipPath>
</defs>
</svg>
