<svg width="86" height="42" viewBox="0 0 86 42" fill="none" xmlns="http://www.w3.org/2000/svg">
<path d="M45.368 8.6H49.752V31H45.368V8.6ZM62.781 18.904C62.1197 18.6693 61.5223 18.552 60.989 18.552C60.2423 18.552 59.613 18.7547 59.101 19.16C58.6103 19.544 58.2797 20.0453 58.109 20.664V31H53.949V15H57.181L57.661 17.112H57.789C58.1517 16.3227 58.6423 15.7147 59.261 15.288C59.8797 14.8613 60.605 14.648 61.437 14.648C61.9917 14.648 62.621 14.7653 63.325 15L62.781 18.904ZM65.5518 15H69.7118V31H65.5518V15ZM64.9438 10.488C64.9438 9.86933 65.1678 9.34667 65.6158 8.92C66.0851 8.472 66.7251 8.248 67.5358 8.248C68.3464 8.248 68.9971 8.472 69.4878 8.92C69.9998 9.34667 70.2558 9.86933 70.2558 10.488C70.2558 11.1067 69.9998 11.6293 69.4878 12.056C68.9971 12.4613 68.3464 12.664 67.5358 12.664C66.7251 12.664 66.0851 12.4613 65.6158 12.056C65.1678 11.6293 64.9438 11.1067 64.9438 10.488ZM80.3855 26.584C80.3855 26.1573 80.2042 25.816 79.8415 25.56C79.4788 25.304 79.0308 25.0693 78.4975 24.856C77.9642 24.6427 77.3775 24.4293 76.7375 24.216C76.0975 23.9813 75.5108 23.672 74.9775 23.288C74.4442 22.8827 73.9962 22.3813 73.6335 21.784C73.2708 21.1653 73.0895 20.376 73.0895 19.416C73.0895 17.8373 73.5588 16.632 74.4975 15.8C75.4362 14.968 76.7908 14.552 78.5615 14.552C79.7775 14.552 80.8762 14.68 81.8575 14.936C82.8388 15.192 83.6068 15.48 84.1615 15.8L83.2335 18.808C82.7428 18.616 82.1242 18.4133 81.3775 18.2C80.6308 17.9867 79.8735 17.88 79.1055 17.88C77.8682 17.88 77.2495 18.36 77.2495 19.32C77.2495 19.704 77.4308 20.0133 77.7935 20.248C78.1562 20.4827 78.6042 20.7067 79.1375 20.92C79.6708 21.112 80.2575 21.3253 80.8975 21.56C81.5375 21.7947 82.1242 22.104 82.6575 22.488C83.1908 22.8507 83.6388 23.3307 84.0015 23.928C84.3642 24.5253 84.5455 25.2933 84.5455 26.232C84.5455 27.8533 84.0228 29.1333 82.9775 30.072C81.9535 30.9893 80.4068 31.448 78.3375 31.448C77.2068 31.448 76.1402 31.2987 75.1375 31C74.1562 30.7227 73.3562 30.392 72.7375 30.008L73.8895 26.904C74.3802 27.1813 75.0308 27.4587 75.8415 27.736C76.6522 27.992 77.4842 28.12 78.3375 28.12C78.9562 28.12 79.4468 28.0027 79.8095 27.768C80.1935 27.5333 80.3855 27.1387 80.3855 26.584Z" fill="white"/>
<g clip-path="url(#clip0)">
<path d="M18 24.75C17.778 24.75 17.5665 24.651 17.424 24.48C12.2055 18.216 12.2055 11.0325 17.424 4.76846C17.7075 4.42646 18.291 4.42646 18.576 4.76846C23.7945 11.0325 23.7945 18.216 18.576 24.48C18.4335 24.651 18.222 24.75 18 24.75ZM18 6.45446C13.9875 11.7525 13.9875 17.4975 18 22.7955C22.0125 17.4975 22.0125 11.7525 18 6.45446Z" fill="white"/>
<path d="M18 31.5C17.778 31.5 17.5665 31.401 17.424 31.23C16.197 29.757 15.243 28.2015 14.5905 26.6085C14.4345 26.2245 14.6175 25.7865 15 25.6305C15.384 25.4745 15.822 25.6575 15.978 26.04C16.4655 27.234 17.1435 28.4085 17.9985 29.5425C18.852 28.4085 19.53 27.234 20.019 26.04C20.175 25.6575 20.613 25.473 20.997 25.6305C21.381 25.7865 21.564 26.2245 21.4065 26.6085C20.754 28.2015 19.8015 29.757 18.573 31.23C18.4335 31.401 18.222 31.5 18 31.5Z" fill="white"/>
<path d="M18.0135 24.7351C17.631 24.7351 17.304 24.4426 17.268 24.0541C17.2305 23.6416 17.5335 23.2756 17.946 23.2381C25.074 22.5781 28.9935 18.9316 29.901 12.1006C26.619 12.5431 24.0465 13.6951 22.2405 15.5266C21.9465 15.8221 21.471 15.8251 21.18 15.5341C20.8845 15.2431 20.8815 14.7691 21.171 14.4736C23.3985 12.2146 26.598 10.8796 30.6825 10.5031C30.9 10.4791 31.1235 10.5616 31.281 10.7191C31.437 10.8766 31.518 11.0956 31.4985 11.3176C30.762 19.4641 26.2485 23.9761 18.0855 24.7321C18.06 24.7351 18.036 24.7351 18.0135 24.7351Z" fill="white"/>
<path d="M26.259 28.509C23.349 28.509 20.4375 27.4035 17.544 25.1895C17.214 24.939 17.1525 24.468 17.403 24.138C17.6565 23.808 18.126 23.748 18.4545 23.9985C23.6985 28.0095 28.8045 28.0155 34.047 24.0105C31.6665 22.1985 29.283 21.2055 26.9505 21.0525C26.538 21.0255 26.226 20.6685 26.2515 20.2545C26.28 19.842 26.598 19.527 27.0495 19.5555C29.94 19.7445 32.8605 21.0495 35.7285 23.4315C35.901 23.574 36 23.7855 36 24.0075C36 24.231 35.9025 24.4425 35.73 24.585C32.5905 27.201 29.424 28.509 26.259 28.509Z" fill="white"/>
<path d="M9.741 28.5091C6.576 28.5091 3.4095 27.2011 0.27 24.5851C0.0975 24.4426 0 24.2311 0 24.0076C0 23.7856 0.099 23.5741 0.2715 23.4316C3.1395 21.0496 6.06 19.7446 8.9505 19.5556C9.3945 19.5241 9.7215 19.8421 9.7485 20.2546C9.7755 20.6671 9.4635 21.0256 9.0495 21.0526C6.7155 21.2056 4.332 22.2001 1.953 24.0106C7.1925 28.0156 12.3015 28.0096 17.5455 23.9986C17.874 23.7481 18.345 23.8081 18.597 24.1381C18.8475 24.4666 18.786 24.9376 18.456 25.1896C15.5625 27.4021 12.6525 28.5091 9.741 28.5091Z" fill="white"/>
<path d="M17.9865 24.7351C17.9625 24.7351 17.94 24.7351 17.916 24.7321C9.75303 23.9761 5.23953 19.4626 4.50303 11.3176C4.48203 11.0971 4.56303 10.8766 4.72053 10.7191C4.87803 10.5616 5.09553 10.4791 5.31903 10.5031C9.40353 10.8781 12.6015 12.2146 14.8305 14.4736C15.12 14.7691 15.117 15.2431 14.8215 15.5341C14.529 15.8251 14.0535 15.8221 13.761 15.5266C11.955 13.6951 9.38103 12.5446 6.09903 12.1006C7.00503 18.9316 10.926 22.5781 18.054 23.2381C18.4665 23.2756 18.771 23.6416 18.732 24.0541C18.696 24.4426 18.369 24.7351 17.9865 24.7351Z" fill="white"/>
</g>
<defs>
<clipPath id="clip0">
<rect width="36" height="36" fill="white"/>
</clipPath>
</defs>
</svg>
