<svg width="210" height="190" viewBox="0 0 210 190" fill="none" xmlns="http://www.w3.org/2000/svg">
<g clip-path="url(#clip0)">
<circle cx="153.624" cy="81.7511" r="3.56604" transform="rotate(40.8511 153.624 81.7511)" fill="#7C1DC9"/>
<circle cx="123.453" cy="37.5896" r="2.9717" transform="rotate(40.8511 123.453 37.5896)" fill="#43E8E1"/>
<circle cx="161.116" cy="34.0144" r="2.9717" transform="rotate(40.8511 161.116 34.0144)" fill="#E03C8B"/>
<circle cx="96.0447" cy="54.7468" r="2.9717" transform="rotate(40.8511 96.0447 54.7468)" fill="#E03C8B"/>
<path d="M163.69 109.947C164.287 109.618 164.971 110.209 164.731 110.847L163.703 113.578C163.627 113.779 163.643 114.003 163.747 114.191L165.159 116.746C165.488 117.342 164.897 118.026 164.259 117.786L161.527 116.758C161.327 116.682 161.103 116.698 160.915 116.802L158.36 118.214C157.764 118.543 157.08 117.952 157.32 117.314L158.348 114.583C158.424 114.382 158.408 114.158 158.304 113.97L156.892 111.415C156.563 110.819 157.154 110.135 157.792 110.375L160.523 111.403C160.724 111.479 160.948 111.463 161.136 111.359L163.69 109.947Z" fill="#E03C8B"/>
<path d="M122.46 87.8035C101.356 69.5537 81.8104 57.5772 78.8045 61.0532C76.5777 62.376 56.064 123.241 43.5214 160.967C39.8761 171.931 51.1943 181.796 61.5502 176.672C97.2698 158.998 154.862 130.074 155.231 127.142C158.236 123.665 143.565 106.053 122.46 87.8035Z" fill="url(#paint0_linear)"/>
<mask id="mask0" mask-type="alpha" maskUnits="userSpaceOnUse" x="9" y="54" width="152" height="154">
<path d="M122.46 87.8035C101.356 69.5537 81.8104 57.5772 78.8045 61.0532C76.5777 62.376 56.064 123.241 43.5214 160.967C39.8761 171.931 51.1943 181.796 61.5502 176.672C97.2698 158.998 154.862 130.074 155.231 127.142C158.236 123.665 143.565 106.053 122.46 87.8035Z" fill="#7C1DC9"/>
</mask>
<g mask="url(#mask0)">
<path d="M134.127 140.642C108.507 122.056 80.6419 90.9227 70.7383 77.6504L68.8042 82.6686C77.5726 98.1808 100.394 133.478 121.171 147.281L134.127 140.642Z" fill="url(#paint1_linear)"/>
<path d="M111.723 160.564C87.6779 139.981 62.4028 106.71 53.597 92.6851L51.2661 97.5318C58.7605 113.698 78.6742 150.714 98.2751 166.14L111.723 160.564Z" fill="url(#paint2_linear)"/>
<path d="M89.1273 170.874C63.5072 152.288 35.642 121.154 25.7385 107.882L23.8043 112.9C32.5727 128.412 55.3946 163.709 76.171 177.512L89.1273 170.874Z" fill="url(#paint3_linear)"/>
<g filter="url(#filter0_f)">
<ellipse cx="63.3167" cy="123.098" rx="7.72641" ry="53.1281" transform="rotate(19.5596 63.3167 123.098)" fill="url(#paint4_radial)" fill-opacity="0.6"/>
</g>
<g filter="url(#filter1_f)">
<ellipse cx="92.2697" cy="148.127" rx="12.1869" ry="14.9096" transform="rotate(57.9216 92.2697 148.127)" fill="white" fill-opacity="0.4"/>
</g>
<g filter="url(#filter2_f)">
<ellipse cx="111.781" cy="138.285" rx="12.1869" ry="14.9096" transform="rotate(57.9216 111.781 138.285)" fill="white" fill-opacity="0.4"/>
</g>
<g filter="url(#filter3_f)">
<ellipse cx="58.033" cy="164.095" rx="12.1869" ry="14.9096" transform="rotate(57.9216 58.033 164.095)" fill="white" fill-opacity="0.4"/>
</g>
<ellipse cx="117.018" cy="94.0973" rx="50.5188" ry="10.6981" transform="rotate(40.8511 117.018 94.0973)" fill="url(#paint5_linear)"/>
<g filter="url(#filter4_f)">
<ellipse cx="116.24" cy="94.9964" rx="50.5188" ry="11.8868" transform="rotate(40.8511 116.24 94.9964)" fill="white" fill-opacity="0.3"/>
</g>
</g>
<ellipse cx="116.24" cy="94.9967" rx="48.1415" ry="7.13207" transform="rotate(40.8511 116.24 94.9967)" fill="url(#paint6_linear)"/>
<path d="M133.919 106.355L180.244 82.7693" stroke="#43E8E1" stroke-width="5.94339" stroke-linecap="round" stroke-linejoin="round"/>
<path d="M154.176 17.7979C139.07 29.7451 130.479 41.7181 139.601 60.9373C144.337 70.9181 157.322 69.8748 165.955 66.076C177.512 60.9911 163.829 57.2281 157.404 58.2668C136.338 61.6724 124.102 78.1418 119.576 97.375" stroke="#E03C8B" stroke-width="5.94339" stroke-linecap="round"/>
<path d="M107.403 37.0684C112.245 57.1606 111.843 71.914 103.859 81.1475" stroke="#7C1DC9" stroke-width="5.94339" stroke-linecap="round"/>
</g>
<defs>
<filter id="filter0_f" x="34.6835" y="66.8832" width="57.2664" height="112.43" filterUnits="userSpaceOnUse" color-interpolation-filters="sRGB">
<feFlood flood-opacity="0" result="BackgroundImageFix"/>
<feBlend mode="normal" in="SourceGraphic" in2="BackgroundImageFix" result="shape"/>
<feGaussianBlur stdDeviation="1.78302" result="effect1_foregroundBlur"/>
</filter>
<filter id="filter1_f" x="60.0888" y="116.807" width="64.3618" height="62.6397" filterUnits="userSpaceOnUse" color-interpolation-filters="sRGB">
<feFlood flood-opacity="0" result="BackgroundImageFix"/>
<feBlend mode="normal" in="SourceGraphic" in2="BackgroundImageFix" result="shape"/>
<feGaussianBlur stdDeviation="6.53773" result="effect1_foregroundBlur"/>
</filter>
<filter id="filter2_f" x="79.6004" y="106.965" width="64.3618" height="62.6397" filterUnits="userSpaceOnUse" color-interpolation-filters="sRGB">
<feFlood flood-opacity="0" result="BackgroundImageFix"/>
<feBlend mode="normal" in="SourceGraphic" in2="BackgroundImageFix" result="shape"/>
<feGaussianBlur stdDeviation="6.53773" result="effect1_foregroundBlur"/>
</filter>
<filter id="filter3_f" x="25.8521" y="132.775" width="64.3618" height="62.6397" filterUnits="userSpaceOnUse" color-interpolation-filters="sRGB">
<feFlood flood-opacity="0" result="BackgroundImageFix"/>
<feBlend mode="normal" in="SourceGraphic" in2="BackgroundImageFix" result="shape"/>
<feGaussianBlur stdDeviation="6.53773" result="effect1_foregroundBlur"/>
</filter>
<filter id="filter4_f" x="67.8747" y="50.5836" width="96.731" height="88.8256" filterUnits="userSpaceOnUse" color-interpolation-filters="sRGB">
<feFlood flood-opacity="0" result="BackgroundImageFix"/>
<feBlend mode="normal" in="SourceGraphic" in2="BackgroundImageFix" result="shape"/>
<feGaussianBlur stdDeviation="1.18868" result="effect1_foregroundBlur"/>
</filter>
<linearGradient id="paint0_linear" x1="52.8433" y1="212.921" x2="18.6028" y2="187.967" gradientUnits="userSpaceOnUse">
<stop stop-color="#C233DF"/>
<stop offset="0.625" stop-color="#7750FD"/>
<stop offset="1" stop-color="#5D30F9"/>
</linearGradient>
<linearGradient id="paint1_linear" x1="131.176" y1="144.056" x2="45.15" y2="61.8092" gradientUnits="userSpaceOnUse">
<stop stop-color="#C8307C"/>
<stop offset="1" stop-color="#E2824C"/>
</linearGradient>
<linearGradient id="paint2_linear" x1="108.507" y1="163.729" x2="29.3634" y2="74.8402" gradientUnits="userSpaceOnUse">
<stop stop-color="#C8307C"/>
<stop offset="1" stop-color="#E2824C"/>
</linearGradient>
<linearGradient id="paint3_linear" x1="86.1757" y1="174.287" x2="0.150157" y2="92.0406" gradientUnits="userSpaceOnUse">
<stop stop-color="#C8307C"/>
<stop offset="1" stop-color="#E2824C"/>
</linearGradient>
<radialGradient id="paint4_radial" cx="0" cy="0" r="1" gradientUnits="userSpaceOnUse" gradientTransform="translate(63.3167 123.098) rotate(89.1487) scale(57.6117 8.37888)">
<stop stop-color="white"/>
<stop offset="1" stop-color="white" stop-opacity="0"/>
</radialGradient>
<linearGradient id="paint5_linear" x1="146.14" y1="109.476" x2="110.763" y2="125.321" gradientUnits="userSpaceOnUse">
<stop stop-color="#C233DF"/>
<stop offset="0.625" stop-color="#7750FD"/>
<stop offset="1" stop-color="#5D30F9"/>
</linearGradient>
<linearGradient id="paint6_linear" x1="116.24" y1="87.8646" x2="116.834" y2="115.799" gradientUnits="userSpaceOnUse">
<stop stop-color="#25063E"/>
<stop offset="1" stop-color="#7F579F"/>
</linearGradient>
<clipPath id="clip0">
<rect width="210" height="190" fill="white"/>
</clipPath>
</defs>
</svg>
