<svg width="49" height="38" viewBox="0 0 49 38" fill="none" xmlns="http://www.w3.org/2000/svg">
<path d="M4.63326 0.161956C4.31844 0.21032 4.01578 1.36488 3.40732 1.96634C2.96235 2.40043 2.4069 2.37327 2.11185 2.90992C1.99985 3.11041 2.03613 3.45264 1.90903 3.78123C1.6608 4.43841 0.786072 4.49716 0.786072 5.21321C0.78303 5.98648 1.51556 6.13417 2.14966 6.68283C2.6446 7.12449 2.69305 7.42896 3.29228 7.64297C3.80395 7.81641 4.56515 7.24957 5.25075 7.45308C5.8138 7.62046 6.35252 7.74099 6.47973 8.31681C6.59163 8.84741 6.47213 9.67035 5.78957 9.57546C5.55949 9.54982 4.56211 9.21517 3.33627 9.34479C1.85754 9.51217 0.170001 9.99288 0.00509337 11.6345C-0.0857253 12.5525 1.05386 13.6348 2.15422 13.4147C2.91542 13.2654 2.5553 12.3717 2.96996 11.9375C3.51324 11.3814 6.59163 13.879 9.45361 13.879C10.6584 13.879 11.5543 13.576 12.4443 12.6475C12.5274 12.5766 12.6289 12.4244 12.7575 12.4153C12.8786 12.4244 13.0905 12.5434 13.1601 12.5947C15.4651 14.4396 17.2071 18.1403 25.678 18.184C26.8691 18.1899 28.2266 18.7568 29.3344 19.7637C30.3228 20.6741 30.9009 22.0894 31.4624 23.526C32.3099 25.6816 33.8295 27.7783 36.1329 30.1116C36.2586 30.2367 38.1549 31.7049 38.3063 31.815C38.3305 31.83 38.4697 32.1616 38.4214 32.347C38.3654 33.7459 38.161 37.8141 41.206 37.9981C41.9507 38.0357 41.7554 37.5142 41.7554 37.1554C41.754 36.447 41.6237 35.743 41.9992 35.018C42.5122 34.0202 40.911 33.5604 40.9579 31.4034C40.9912 29.7951 39.6351 30.0693 38.9464 28.8439C38.5499 28.1339 38.1973 27.7572 38.223 26.8888C38.3774 22.0021 37.1787 18.7914 36.5809 18.0031C36.1149 17.4077 35.7289 17.1711 36.1556 16.8952C38.6968 15.2235 39.2734 13.6679 39.2734 13.6679C40.6248 10.504 41.8403 7.6143 43.5156 6.34223C43.8531 6.07986 44.7189 5.43631 45.2501 5.18302C46.8134 4.44891 47.6368 4.00433 48.0909 3.56408C48.8097 2.86621 49.3772 1.41162 48.6886 0.529823C47.832 -0.558523 46.3503 0.305208 45.6966 0.691035C41.0245 3.45264 40.3359 8.32428 38.7179 11.122C37.427 13.3574 35.3278 14.9989 33.4511 15.1331C32.0436 15.237 30.5271 14.9537 29.0167 14.2935C25.3435 12.6897 23.3335 10.6186 22.8599 10.2523C21.8731 9.4941 14.2119 2.004 8.00518 1.69802C8.00518 1.69802 7.23496 0.162064 7.04115 0.136422C6.58706 0.0790775 6.12254 1.05436 5.78957 1.16753C5.47627 1.2714 4.94961 0.110671 4.63326 0.161956Z" fill="white"/>
</svg>
