<svg width="25" height="24" viewBox="0 0 25 24" fill="none" xmlns="http://www.w3.org/2000/svg">
<rect x="3.5" y="4" width="18" height="18" rx="2" stroke="#8D899E" stroke-width="1.5"/>
<path d="M7.73853 13.9238V16.9689L12.4924 18.8066L17.2614 16.9689V13.9238" stroke="#8D899E" stroke-linecap="round" stroke-linejoin="round"/>
<path d="M7.98022 11.5339L10.7523 10.468M17.0074 11.5339L14.2337 10.468" stroke="#8D899E" stroke-linecap="round" stroke-linejoin="round"/>
<path d="M12.5 18.8066V13.365" stroke="#8D899E" stroke-linejoin="round"/>
<path d="M6.60486 13.3649L7.96527 11.551L12.5 13.3649L11.1396 15.1788L6.60486 13.3649Z" stroke="#8D899E" stroke-linejoin="round"/>
<path d="M18.3951 13.3649L17.0347 11.551L12.5 13.3649L13.8604 15.1788L18.3951 13.3649Z" stroke="#8D899E" stroke-linejoin="round"/>
<path d="M12.5 11.551V8.37671" stroke="#8D899E" stroke-linecap="round" stroke-linejoin="round"/>
<path d="M11.593 8.83028L12.5 7.92334L13.4069 8.83028" stroke="#8D899E" stroke-linecap="round" stroke-linejoin="round"/>
<path d="M8.5 2V6" stroke="#8D899E" stroke-width="1.5" stroke-linecap="round" stroke-linejoin="round"/>
<path d="M16.5 2V6" stroke="#8D899E" stroke-width="1.5" stroke-linecap="round" stroke-linejoin="round"/>
</svg>
