<svg width="32" height="32" viewBox="0 0 32 32" fill="none" xmlns="http://www.w3.org/2000/svg">
<g clip-path="url(#clip0)">
<path fill-rule="evenodd" clip-rule="evenodd" d="M0.324587 25.0102C0.356543 25.3875 0.456794 25.8099 0.590479 26.3088L0.622467 26.4131C0.643452 26.4008 0.666245 26.3907 0.69061 26.3835C3.77174 25.4627 8.07539 24.2174 12.5139 22.9705C12.4882 22.9453 12.4605 22.918 12.4311 22.8888C12.2506 22.7098 12.0032 22.4597 11.7362 22.1754C11.2092 21.6142 10.5813 20.8947 10.2544 20.3236C9.93998 19.7741 9.65446 19.1675 9.44857 18.7013C9.38012 18.5463 9.32021 18.4062 9.27066 18.2881L8.06129 19.2864L8.06217 19.2929C8.07616 19.3976 8.09822 19.5429 8.13038 19.7049C8.19672 20.0388 8.29895 20.4053 8.4408 20.6425C8.56324 20.8472 8.79152 21.0832 9.00813 21.2797C9.11319 21.3749 9.20972 21.4558 9.27989 21.5127C9.31491 21.5411 9.34317 21.5634 9.36241 21.5784L9.38419 21.5953L9.38944 21.5993L9.39064 21.6002C9.47272 21.6621 9.51812 21.7611 9.51141 21.8637C9.50471 21.9662 9.44681 22.0585 9.35738 22.1092C9.07559 22.2689 8.41695 22.5852 7.62041 22.8888C7.22582 23.0392 6.9831 23.0312 6.72251 23.0225C6.45085 23.0135 6.15976 23.0038 5.65694 23.1723C5.18973 23.3289 4.54209 23.6289 3.90434 23.9243L3.90429 23.9243L3.90423 23.9244C3.19794 24.2515 2.5038 24.5731 2.08031 24.688C1.67773 24.7973 1.31622 24.8852 1.02074 24.9419C0.752331 24.9934 0.502842 25.0268 0.324587 25.0102ZM0.343507 24.3996C0.353972 24.3999 0.364527 24.4006 0.375138 24.402C0.446143 24.411 0.617951 24.3979 0.905738 24.3427C1.18 24.29 1.52509 24.2065 1.9205 24.0992C2.33396 23.987 3.01683 23.6698 3.71416 23.3458L3.7142 23.3458L3.71422 23.3458C4.34936 23.0508 4.99651 22.7502 5.46303 22.5938C5.96296 22.4262 6.25036 22.4375 6.51832 22.448C6.77467 22.458 7.01324 22.4673 7.40309 22.3187C7.75938 22.1829 8.08243 22.0337 8.34826 21.9109L8.34835 21.9108L8.34861 21.9107C8.45825 21.8601 8.55814 21.8139 8.64662 21.7751C8.63072 21.7609 8.61458 21.7464 8.59824 21.7316C8.37431 21.5285 8.0886 21.2422 7.9172 20.9557C7.7182 20.6231 7.6004 20.1684 7.53193 19.8237C7.49669 19.6463 7.47265 19.4879 7.4574 19.3737C7.45162 19.3305 7.44708 19.2934 7.44365 19.2639C6.44182 19.9857 5.43987 20.6109 4.51376 21.0771C1.56166 22.5635 0.523636 23.3513 0.343507 24.3996ZM9.59892 17.5603C9.63475 17.5921 9.66311 17.6323 9.68092 17.6782L9.68218 17.6814L9.68632 17.692L9.70301 17.7341C9.71776 17.7712 9.73964 17.8256 9.76786 17.8944C9.82431 18.032 9.90602 18.2268 10.0067 18.4548C10.2087 18.9121 10.4845 19.4972 10.784 20.0205C11.0711 20.5222 11.6523 21.1948 12.1809 21.7577C12.4418 22.0354 12.6838 22.2802 12.8607 22.4556C12.9491 22.5432 13.0211 22.6134 13.0709 22.6615L13.128 22.7166L13.1427 22.7306L13.1463 22.7341L13.1474 22.7351C13.1626 22.7495 13.176 22.7651 13.1875 22.7816C14.9669 22.2832 16.7591 21.7872 18.4944 21.3143C20.1925 20.8515 21.8367 20.4106 23.3616 20.011C23.3276 19.321 23.2984 18.3378 23.3121 17.4334C23.3196 16.9424 23.3398 16.4694 23.3797 16.0769C23.3996 15.8808 23.4249 15.7003 23.4572 15.5454C23.4885 15.3953 23.5303 15.249 23.5917 15.1337C23.6687 14.9889 23.7998 14.8497 23.9434 14.7221C24.0918 14.5902 24.2757 14.4517 24.4811 14.311C24.8924 14.0294 25.4098 13.7256 25.9489 13.4315C27.028 12.8429 28.2176 12.2804 28.8744 11.9933C28.9035 11.9805 28.9335 11.9727 28.9634 11.9694C28.8097 11.7323 28.6619 11.4736 28.5249 11.1671C28.309 10.6841 28.0406 9.93609 27.7399 9.09793L27.7399 9.09783C27.7111 9.01773 27.6821 8.9368 27.6528 8.8552L27.3756 9.04219C26.0418 10.0462 24.4273 11.0975 22.9754 11.8831C22.6973 12.0336 22.4241 12.1749 22.1592 12.3045C22.5298 12.6699 22.811 13.1359 22.9554 13.6745C23.3878 15.2884 22.43 16.9473 20.8161 17.3798C19.2022 17.8123 17.5432 16.8545 17.1108 15.2405C16.8331 14.2044 17.1287 13.1501 17.8019 12.4138C17.5242 12.2561 17.231 12.0846 16.938 11.9132L16.938 11.9132L16.8397 11.8557C16.3856 11.5903 15.9359 11.3286 15.5379 11.1154C15.2031 10.936 14.9209 10.7998 14.711 10.7229C14.703 10.788 14.6941 10.8521 14.6841 10.9153C14.615 11.3536 14.4278 11.8447 14.1457 12.3698C14.2196 12.4096 14.2769 12.4796 14.2979 12.5677C14.3502 12.787 14.4774 13.1351 14.6818 13.4419C14.8885 13.7523 15.1446 13.9774 15.4415 14.0382C15.6066 14.072 15.713 14.2332 15.6793 14.3982C15.6455 14.5633 15.4843 14.6697 15.3192 14.636C14.7968 14.529 14.4224 14.1531 14.174 13.7801C13.9961 13.5131 13.8675 13.2255 13.7843 12.982C13.5873 13.2896 13.3632 13.6057 13.116 13.9269C13.1691 13.957 13.2137 14.0033 13.2416 14.0628C13.3672 14.3311 13.5991 14.7057 13.8772 15.0164C14.1678 15.3411 14.4507 15.5309 14.6707 15.551C14.8385 15.5663 14.9621 15.7148 14.9467 15.8826C14.9314 16.0504 14.7829 16.1739 14.6151 16.1586C14.1495 16.116 13.7308 15.7678 13.4226 15.4233C13.1304 15.0968 12.8852 14.7146 12.7313 14.4086C12.5355 14.6454 12.3285 14.8841 12.1119 15.1233C12.1449 15.1517 12.1723 15.1876 12.1912 15.23C12.314 15.5055 12.5325 15.926 12.7833 16.2849C12.9089 16.4646 13.0366 16.6201 13.1581 16.7332C13.2852 16.8513 13.3772 16.8964 13.4299 16.9057C13.5958 16.935 13.7066 17.0933 13.6773 17.2592C13.648 17.4251 13.4897 17.5359 13.3238 17.5065C13.0994 17.4669 12.9019 17.3281 12.7426 17.1799C12.5778 17.0267 12.4223 16.8334 12.2832 16.6344C12.0359 16.2805 11.8216 15.8809 11.6827 15.585C11.4054 15.8758 11.1154 16.1662 10.8156 16.4539C10.8778 16.4797 10.9318 16.5261 10.9665 16.5898C11.0615 16.7643 11.2348 17.049 11.4392 17.324C11.6491 17.6064 11.8686 17.8465 12.0525 17.9636C12.1946 18.0541 12.2365 18.2427 12.146 18.3848C12.0555 18.527 11.8669 18.5688 11.7248 18.4783C11.4418 18.2981 11.1673 17.9811 10.9495 17.688C10.7261 17.3875 10.5378 17.0783 10.4307 16.8816C10.4225 16.8666 10.4158 16.8513 10.4103 16.8357C10.1456 17.0805 9.87453 17.3225 9.59892 17.5603ZM14.7607 10.097C15.0453 10.1794 15.4232 10.3618 15.8261 10.5776C16.2357 10.797 16.6951 11.0644 17.1476 11.329L17.244 11.3854C17.6656 11.632 18.0781 11.8732 18.4444 12.0738C18.8445 12.2928 19.1664 12.4503 19.3752 12.5166C19.4608 12.5438 19.6056 12.5529 19.8237 12.5195C20.0367 12.4869 20.2948 12.4177 20.592 12.3135C21.186 12.1052 21.9068 11.7676 22.685 11.3465C22.9425 11.2072 23.2054 11.0592 23.4711 10.9045L14.7119 7.64247C14.7181 7.81634 14.7253 7.99161 14.7325 8.16723L14.7325 8.16726C14.7595 8.82392 14.7867 9.48544 14.7607 10.097ZM14.8152 5.31387L26.8217 6.63753C26.0905 4.8234 25.2985 3.34665 24.6392 3.89143C23.3782 4.93337 21.1164 4.70335 17.2877 3.88107C15.6847 3.53679 15.0476 4.20648 14.8152 5.31387ZM29.2686 12.4109C29.2377 12.4718 29.1863 12.5228 29.1188 12.5523C28.4757 12.8335 27.3024 13.3882 26.2411 13.9671C25.71 14.2568 25.2129 14.5494 24.8259 14.8144C24.6322 14.947 24.471 15.0695 24.3486 15.1782C24.2214 15.2913 24.1557 15.3726 24.1303 15.4203C24.1097 15.459 24.0819 15.5381 24.0545 15.6699C24.028 15.7968 24.0054 15.9547 23.9867 16.1386C23.9493 16.5063 23.9295 16.9598 23.9222 17.4427C23.9095 18.2767 23.9341 19.1827 23.9649 19.8535C25.039 19.5741 26.0467 19.3174 26.9637 19.0907C28.8061 18.6354 30.3005 18.2963 31.2304 18.1404C31.2205 18.0943 31.2131 18.0471 31.2083 18.0009C30.8549 14.5839 30.106 13.5583 29.3893 12.5766L29.3892 12.5766C29.3489 12.5214 29.3087 12.4662 29.2686 12.4109ZM3.19023 28.0764C2.22751 28.3344 1.23628 27.8587 0.820346 26.9839C0.835904 26.9817 0.851497 26.9784 0.867012 26.9737C5.33096 25.6397 12.3671 23.6228 18.6564 21.9087C21.8011 21.0516 24.7575 20.2707 27.1116 19.6888C29.0177 19.2176 30.51 18.882 31.3891 18.7383L31.6036 19.539C31.7312 20.0151 31.4486 20.5046 30.9725 20.6322L3.19023 28.0764ZM21.5582 12.5845C21.2897 12.7026 21.0336 12.8053 20.7939 12.8893C20.4757 13.0009 20.1791 13.0824 19.9161 13.1227C19.6581 13.1621 19.4055 13.1664 19.1905 13.0981C18.9657 13.0267 18.6744 12.888 18.3557 12.7191C17.7447 13.3098 17.4649 14.2048 17.7001 15.0826C18.0454 16.3711 19.3697 17.1357 20.6582 16.7904C21.9466 16.4452 22.7112 15.1208 22.366 13.8324C22.2292 13.3218 21.9391 12.894 21.5582 12.5845ZM27.0212 8.54528C27.0706 8.50809 27.1195 8.47097 27.1681 8.43394L26.8521 7.25472L15.0498 5.95357L14.9993 7.0984L24.1272 10.4977L27.0212 8.54528Z" fill="#7963FA"/>
</g>
<defs>
<clipPath id="clip0">
<rect width="32" height="32" fill="white"/>
</clipPath>
</defs>
</svg>
