<svg width="48" height="48" viewBox="0 0 48 48" fill="none" xmlns="http://www.w3.org/2000/svg">
<circle cx="24" cy="24" r="24" fill="#33275C"/>
<mask id="mask0" style="mask-type:alpha" maskUnits="userSpaceOnUse" x="0" y="0" width="48" height="48">
<circle cx="24" cy="24" r="24" fill="#C4C4C4"/>
</mask>
<g mask="url(#mask0)">
</g>
<g clip-path="url(#clip0)">
<path fill-rule="evenodd" clip-rule="evenodd" d="M8.32459 33.0102C8.35654 33.3875 8.45679 33.8099 8.59048 34.3088L8.62247 34.4131C8.64345 34.4008 8.66624 34.3908 8.69061 34.3835C11.7717 33.4627 16.0754 32.2174 20.5139 30.9705C20.4882 30.9453 20.4605 30.918 20.4311 30.8888C20.2506 30.7098 20.0032 30.4597 19.7362 30.1754C19.2092 29.6142 18.5813 28.8947 18.2544 28.3236C17.94 27.7741 17.6545 27.1675 17.4486 26.7013C17.3801 26.5463 17.3202 26.4062 17.2707 26.2881L16.0613 27.2864L16.0622 27.2929C16.0762 27.3976 16.0982 27.5429 16.1304 27.7049C16.1967 28.0388 16.2989 28.4053 16.4408 28.6425C16.5632 28.8472 16.7915 29.0832 17.0081 29.2797C17.1132 29.3749 17.2097 29.4558 17.2799 29.5127C17.3149 29.5411 17.3432 29.5634 17.3624 29.5784L17.3842 29.5953L17.3894 29.5993L17.3906 29.6002C17.4727 29.6621 17.5181 29.7611 17.5114 29.8637C17.5047 29.9662 17.4468 30.0585 17.3574 30.1092C17.0756 30.2689 16.417 30.5852 15.6204 30.8888C15.2258 31.0392 14.9831 31.0312 14.7225 31.0225C14.4508 31.0135 14.1598 31.0038 13.6569 31.1723C13.1897 31.3289 12.5421 31.6289 11.9043 31.9243L11.9043 31.9243L11.9042 31.9244C11.1979 32.2515 10.5038 32.5731 10.0803 32.688C9.67773 32.7973 9.31622 32.8852 9.02074 32.9419C8.75233 32.9934 8.50284 33.0268 8.32459 33.0102ZM8.34351 32.3996C8.35397 32.3999 8.36453 32.4006 8.37514 32.402C8.44614 32.411 8.61795 32.3979 8.90574 32.3427C9.18 32.29 9.52509 32.2065 9.9205 32.0992C10.334 31.987 11.0168 31.6698 11.7142 31.3458L11.7142 31.3458L11.7142 31.3458C12.3494 31.0508 12.9965 30.7502 13.463 30.5938C13.963 30.4262 14.2504 30.4375 14.5183 30.448C14.7747 30.458 15.0132 30.4673 15.4031 30.3187C15.7594 30.1829 16.0824 30.0337 16.3483 29.9109L16.3483 29.9108L16.3486 29.9107C16.4582 29.8601 16.5581 29.8139 16.6466 29.7751C16.6307 29.7609 16.6146 29.7464 16.5982 29.7316C16.3743 29.5285 16.0886 29.2422 15.9172 28.9557C15.7182 28.6231 15.6004 28.1684 15.5319 27.8237C15.4967 27.6463 15.4727 27.4879 15.4574 27.3737C15.4516 27.3305 15.4471 27.2934 15.4437 27.2639C14.4418 27.9857 13.4399 28.6109 12.5138 29.0771C9.56166 30.5635 8.52364 31.3513 8.34351 32.3996ZM17.5989 25.5603C17.6348 25.5921 17.6631 25.6323 17.6809 25.6782L17.6822 25.6814L17.6863 25.692L17.703 25.7341C17.7178 25.7712 17.7396 25.8256 17.7679 25.8944C17.8243 26.032 17.906 26.2268 18.0067 26.4548C18.2087 26.9121 18.4845 27.4972 18.784 28.0205C19.0711 28.5222 19.6524 29.1948 20.1809 29.7577C20.4418 30.0354 20.6838 30.2802 20.8607 30.4556C20.9491 30.5432 21.0211 30.6134 21.0709 30.6615L21.128 30.7166L21.1427 30.7306L21.1463 30.7341L21.1474 30.7351C21.1626 30.7495 21.176 30.7651 21.1875 30.7816C22.9669 30.2832 24.7591 29.7872 26.4944 29.3143C28.1925 28.8515 29.8367 28.4106 31.3616 28.0111C31.3276 27.321 31.2984 26.3378 31.3121 25.4334C31.3196 24.9424 31.3398 24.4694 31.3797 24.077C31.3996 23.8808 31.4249 23.7003 31.4572 23.5454C31.4885 23.3953 31.5303 23.249 31.5917 23.1337C31.6687 22.9889 31.7998 22.8497 31.9434 22.7221C32.0918 22.5902 32.2756 22.4517 32.4811 22.311C32.8924 22.0294 33.4098 21.7256 33.9489 21.4315C35.028 20.8429 36.2176 20.2804 36.8744 19.9933C36.9035 19.9805 36.9335 19.9727 36.9634 19.9694C36.8097 19.7323 36.6619 19.4736 36.5249 19.1671C36.309 18.6841 36.0406 17.9361 35.7399 17.0979L35.7399 17.0978C35.7111 17.0177 35.6821 16.9368 35.6528 16.8552L35.3756 17.0422C34.0418 18.0462 32.4273 19.0975 30.9754 19.8831C30.6973 20.0336 30.4241 20.1749 30.1592 20.3045C30.5298 20.6699 30.811 21.1359 30.9554 21.6745C31.3878 23.2884 30.43 24.9473 28.8161 25.3798C27.2022 25.8123 25.5432 24.8545 25.1108 23.2405C24.8331 22.2044 25.1287 21.1501 25.8019 20.4138C25.5242 20.2561 25.231 20.0846 24.938 19.9132L24.938 19.9132L24.8397 19.8557C24.3856 19.5903 23.9359 19.3286 23.5379 19.1154C23.2031 18.936 22.9209 18.7998 22.711 18.7229C22.703 18.788 22.6941 18.8521 22.6841 18.9153C22.615 19.3536 22.4278 19.8447 22.1457 20.3698C22.2196 20.4096 22.2769 20.4796 22.2979 20.5677C22.3502 20.787 22.4774 21.1351 22.6818 21.4419C22.8885 21.7523 23.1446 21.9774 23.4415 22.0382C23.6066 22.072 23.713 22.2332 23.6793 22.3982C23.6455 22.5633 23.4843 22.6697 23.3192 22.636C22.7968 22.5291 22.4224 22.1531 22.174 21.7801C21.9961 21.5131 21.8675 21.2255 21.7843 20.982C21.5873 21.2896 21.3632 21.6057 21.116 21.9269C21.1691 21.957 21.2137 22.0033 21.2416 22.0628C21.3672 22.3311 21.5991 22.7057 21.8772 23.0164C22.1678 23.3411 22.4507 23.5309 22.6707 23.551C22.8385 23.5663 22.9621 23.7148 22.9467 23.8826C22.9314 24.0504 22.7829 24.1739 22.6151 24.1586C22.1495 24.116 21.7308 23.7678 21.4226 23.4233C21.1304 23.0968 20.8852 22.7146 20.7313 22.4086C20.5355 22.6454 20.3285 22.8841 20.1119 23.1233C20.1449 23.1517 20.1723 23.1876 20.1912 23.23C20.314 23.5055 20.5325 23.926 20.7833 24.2849C20.9089 24.4646 21.0366 24.6201 21.1581 24.7332C21.2852 24.8513 21.3772 24.8964 21.4299 24.9057C21.5958 24.935 21.7066 25.0933 21.6773 25.2592C21.648 25.4251 21.4897 25.5359 21.3238 25.5065C21.0994 25.4669 20.9019 25.3281 20.7426 25.1799C20.5778 25.0267 20.4223 24.8334 20.2832 24.6344C20.0359 24.2805 19.8216 23.8809 19.6827 23.585C19.4054 23.8758 19.1154 24.1662 18.8156 24.4539C18.8778 24.4797 18.9318 24.5261 18.9665 24.5898C19.0615 24.7643 19.2348 25.049 19.4392 25.324C19.6491 25.6064 19.8686 25.8465 20.0525 25.9636C20.1946 26.0541 20.2365 26.2427 20.146 26.3848C20.0555 26.527 19.8669 26.5688 19.7248 26.4783C19.4418 26.2981 19.1673 25.9811 18.9495 25.688C18.7261 25.3875 18.5378 25.0783 18.4307 24.8816C18.4225 24.8666 18.4158 24.8513 18.4103 24.8357C18.1456 25.0805 17.8745 25.3225 17.5989 25.5603ZM22.7607 18.097C23.0453 18.1794 23.4232 18.3618 23.8261 18.5776C24.2357 18.797 24.6951 19.0644 25.1476 19.329L25.244 19.3854C25.6656 19.632 26.0781 19.8732 26.4444 20.0738C26.8445 20.2928 27.1664 20.4503 27.3752 20.5166C27.4608 20.5438 27.6056 20.5529 27.8237 20.5195C28.0367 20.4869 28.2948 20.4177 28.592 20.3135C29.186 20.1052 29.9068 19.7676 30.685 19.3465C30.9425 19.2072 31.2054 19.0592 31.4711 18.9045L22.7119 15.6425C22.7181 15.8163 22.7253 15.9916 22.7325 16.1672L22.7325 16.1673C22.7595 16.8239 22.7867 17.4854 22.7607 18.097ZM22.8151 13.3139L34.8217 14.6375C34.0905 12.8234 33.2985 11.3467 32.6392 11.8914C31.3782 12.9334 29.1164 12.7034 25.2877 11.8811C23.6847 11.5368 23.0476 12.2065 22.8151 13.3139ZM37.2686 20.4109C37.2377 20.4718 37.1863 20.5228 37.1188 20.5523C36.4757 20.8335 35.3024 21.3882 34.2411 21.9671C33.71 22.2568 33.2129 22.5494 32.8259 22.8144C32.6322 22.947 32.471 23.0695 32.3486 23.1782C32.2214 23.2913 32.1557 23.3726 32.1303 23.4203C32.1097 23.459 32.0819 23.5381 32.0545 23.6699C32.028 23.7968 32.0054 23.9547 31.9867 24.1386C31.9493 24.5063 31.9295 24.9598 31.9222 25.4427C31.9095 26.2767 31.9341 27.1827 31.9649 27.8535C33.039 27.5741 34.0467 27.3174 34.9637 27.0907C36.8061 26.6354 38.3005 26.2963 39.2304 26.1404C39.2205 26.0943 39.2131 26.0471 39.2083 26.0009C38.8549 22.5839 38.106 21.5583 37.3893 20.5766L37.3892 20.5766C37.3489 20.5214 37.3087 20.4662 37.2686 20.4109ZM11.1902 36.0764C10.2275 36.3344 9.23628 35.8587 8.82035 34.9839C8.8359 34.9817 8.8515 34.9784 8.86701 34.9737C13.331 33.6397 20.3671 31.6228 26.6564 29.9087C29.8011 29.0516 32.7575 28.2707 35.1116 27.6888C37.0177 27.2177 38.51 26.882 39.3891 26.7383L39.6036 27.539C39.7312 28.0151 39.4486 28.5046 38.9725 28.6322L11.1902 36.0764ZM29.5582 20.5845C29.2897 20.7026 29.0336 20.8053 28.7939 20.8893C28.4757 21.0009 28.1791 21.0824 27.9161 21.1227C27.6581 21.1621 27.4055 21.1664 27.1905 21.0981C26.9657 21.0267 26.6744 20.888 26.3557 20.7191C25.7447 21.3098 25.4649 22.2048 25.7001 23.0826C26.0454 24.3711 27.3697 25.1357 28.6582 24.7904C29.9466 24.4452 30.7112 23.1208 30.366 21.8324C30.2292 21.3218 29.9391 20.894 29.5582 20.5845ZM35.0212 16.5453C35.0706 16.5081 35.1195 16.471 35.1681 16.4339L34.8521 15.2547L23.0498 13.9536L22.9993 15.0984L32.1272 18.4977L35.0212 16.5453Z" fill="#7963FA"/>
</g>
<defs>
<clipPath id="clip0">
<rect width="32" height="32" fill="white" transform="translate(8 8)"/>
</clipPath>
</defs>
</svg>
