<svg width="25" height="24" viewBox="0 0 25 24" fill="none" xmlns="http://www.w3.org/2000/svg">
<path fill-rule="evenodd" clip-rule="evenodd" d="M15.8281 3.37678C15.4509 2.98392 14.9299 2.76185 14.3853 2.76185H8.58474C8.1539 2.76019 7.45169 2.75986 6.76518 2.76006C5.65498 2.76039 4.75931 3.66606 4.76103 4.77626C4.76206 5.43338 4.76007 6.09513 4.75074 6.49085V17.2039C4.74082 17.6599 4.73904 18.4009 4.74039 19.1159C4.74247 20.2201 5.64552 21.1069 6.74971 21.1052C7.4177 21.1042 8.09317 21.106 8.49274 21.1149C8.52374 21.1149 8.55374 21.1159 8.58474 21.1149H16.5737C16.9937 21.0978 17.6381 21.0938 18.2737 21.0954C19.3896 21.0981 20.3051 20.2016 20.3058 19.0857C20.3062 18.3585 20.3057 17.6169 20.3027 17.2039V8.84247C20.3027 8.32616 20.1031 7.82986 19.7455 7.4574L15.8281 3.37678Z" stroke="#8D899E" stroke-width="1.5" stroke-linecap="round" stroke-linejoin="round"/>
<path d="M14.9751 2.75V5.659C14.9751 7.079 16.1231 8.23 17.5431 8.234H20.2981" stroke="#8D899E" stroke-width="1.5" stroke-linecap="round" stroke-linejoin="round"/>
<path d="M14.7881 15.3584H9.38806" stroke="#8D899E" stroke-width="1.5" stroke-linecap="round" stroke-linejoin="round"/>
<path d="M12.7431 11.606H9.38708" stroke="#8D899E" stroke-width="1.5" stroke-linecap="round" stroke-linejoin="round"/>
<path fill-rule="evenodd" clip-rule="evenodd" d="M20.2985 8.98425H17.5435C15.7135 8.97925 14.2255 7.48724 14.2255 5.65924V2.75024C14.2255 2.33624 14.5615 2.00024 14.9755 2.00024C15.3895 2.00024 15.7255 2.33624 15.7255 2.75024V5.65924C15.7255 6.66324 16.5425 7.48125 17.5455 7.48424H20.2985C20.7125 7.48424 21.0485 7.82025 21.0485 8.23425C21.0485 8.64825 20.7125 8.98425 20.2985 8.98425Z" fill="#8D899E"/>
<path fill-rule="evenodd" clip-rule="evenodd" d="M14.7887 16.1084H9.38867C8.97467 16.1084 8.63867 15.7724 8.63867 15.3584C8.63867 14.9444 8.97467 14.6084 9.38867 14.6084H14.7887C15.2027 14.6084 15.5387 14.9444 15.5387 15.3584C15.5387 15.7724 15.2027 16.1084 14.7887 16.1084Z" fill="#8D899E"/>
<path fill-rule="evenodd" clip-rule="evenodd" d="M12.7437 12.3564H9.3877C8.9737 12.3564 8.6377 12.0204 8.6377 11.6064C8.6377 11.1924 8.9737 10.8564 9.3877 10.8564H12.7437C13.1577 10.8564 13.4937 11.1924 13.4937 11.6064C13.4937 12.0204 13.1577 12.3564 12.7437 12.3564Z" fill="#8D899E"/>
</svg>
