<svg width="154" height="36" viewBox="0 0 154 36" fill="none" xmlns="http://www.w3.org/2000/svg">
<path d="M122.445 28.8696C117.485 28.8696 114.543 26.585 114.317 23.2943H119.061C119.061 24.3912 119.736 25.8514 122.67 25.9422C124.704 25.9422 125.83 24.8453 125.83 24.0209C125.605 22.7423 123.796 22.6515 121.995 22.372C119.961 22.1065 118.385 21.7362 117.252 21.2821C115.676 20.5485 114.768 18.9905 114.768 17.3486C114.768 14.4212 117.485 12.1366 122.22 12.1366C126.738 12.1366 129.673 14.2396 129.89 17.4394H125.38C125.38 16.622 125.154 15.2456 122.445 15.2456C120.636 15.2456 119.511 15.5181 119.286 16.7058C119.286 18.3547 123.121 18.2639 126.055 18.8997C128.764 19.5424 130.573 21.0935 130.573 23.2943C130.573 27.3186 126.963 28.8696 122.445 28.8696Z" fill="#BBB9C5"/>
<path d="M68.7594 28.3843V12.1053V28.3843Z" fill="#BBB9C5"/>
<path d="M68.7594 28.3843V12.1053" stroke="#BBB9C5" stroke-width="3.64549"/>
<path d="M28.7852 20.486C28.7852 23.0431 31.2693 25.1461 33.9708 25.1461C36.913 25.1461 39.1642 23.0431 39.1642 20.486C39.1642 18.0197 36.913 15.8259 33.9708 15.8259C31.2693 15.8259 28.7852 18.0197 28.7852 20.486ZM33.7457 28.8979C28.7852 28.8979 24.5 25.1461 24.5 20.486C24.5 15.8259 28.7852 12.1649 33.7457 12.1649C35.7796 12.1649 37.5884 12.626 39.1642 13.6251V12.3465H43.6823V28.5277H39.1642V27.5216C37.8135 28.4368 35.7796 28.8979 33.7457 28.8979Z" fill="#BBB9C5"/>
<path d="M49.5508 20.486C49.5508 23.0431 51.8098 25.1461 54.7442 25.1461C57.4457 25.1461 59.9376 23.0431 59.9376 20.486C59.9376 18.0197 57.4457 15.8259 54.7442 15.8259C51.8098 15.8259 49.5508 18.0197 49.5508 20.486ZM54.5191 28.8979C49.3257 28.8979 45.2656 25.1461 45.2656 20.486C45.2656 15.8259 49.3257 12.1649 54.5191 12.1649C56.5452 12.1649 58.354 12.626 59.9376 13.6251V6.77117H64.4479V28.5277H59.9376V27.5216C58.354 28.4368 56.5452 28.8979 54.5191 28.8979Z" fill="#BBB9C5"/>
<path d="M127.646 10.7744C126.513 10.7744 125.387 9.85916 125.387 8.76225C125.387 7.66535 126.513 6.75009 127.646 6.75009C128.997 6.75009 129.905 7.66535 129.905 8.76225C129.905 9.85916 128.997 10.7744 127.646 10.7744ZM127.646 7.02956C126.513 7.02956 125.837 7.847 125.837 8.76225C125.837 9.67751 126.513 10.5019 127.646 10.5019C128.772 10.5019 129.447 9.67751 129.447 8.76225C129.447 7.847 128.772 7.02956 127.646 7.02956Z" fill="#BBB9C5"/>
<path d="M128.112 9.86597L127.662 8.95071H127.212V9.86597H126.87V7.67216H127.887C128.112 7.67216 128.563 7.95162 128.563 8.31493C128.563 8.67823 128.338 8.85989 128.112 8.95071L128.563 9.86597H128.112ZM127.662 7.95162H127.212V8.67823H127.662C128.112 8.67823 128.112 8.58741 128.112 8.31493C128.112 8.12629 128.112 7.95162 127.662 7.95162Z" fill="#BBB9C5"/>
<path d="M97.837 20.486C97.837 23.0431 100.096 25.1461 103.03 25.1461C105.74 25.1461 108.216 23.0431 108.216 20.486C108.216 18.0197 105.74 15.8259 103.03 15.8259C100.096 15.8259 97.837 18.0197 97.837 20.486ZM102.798 28.8979C97.6119 28.8979 93.5519 25.1461 93.5519 20.486C93.5519 15.8259 97.6119 12.1649 102.798 12.1649C104.831 12.1649 106.64 12.626 108.216 13.6251V12.3465H112.509V28.5277H108.216V27.5216C106.64 28.4368 104.831 28.8979 102.798 28.8979Z" fill="#BBB9C5"/>
<path d="M77.0863 20.486C77.0863 23.0431 79.5704 25.1461 82.2797 25.1461C85.2141 25.1461 87.4731 23.0431 87.4731 20.486C87.4731 18.0197 85.2141 15.8259 82.2797 15.8259C79.5704 15.8259 77.0863 18.0197 77.0863 20.486ZM87.4731 6.77117H91.9834V28.5277H87.4731V27.5216C86.1146 28.4368 84.3059 28.8979 82.2797 28.8979C77.0863 28.8979 72.8011 25.1461 72.8011 20.486C72.8011 15.8259 77.0863 12.1649 82.2797 12.1649C84.3059 12.1649 86.1146 12.626 87.4731 13.6251V6.77117Z" fill="#BBB9C5"/>
</svg>
