<svg width="154" height="36" viewBox="0 0 154 36" fill="none" xmlns="http://www.w3.org/2000/svg">
<path d="M99.2151 26.4203L102.023 10.4424H106.353L103.544 26.4203H99.2151Z" fill="#BBB9C5"/>
<path d="M32.6078 26.4203L35.4161 10.4424H39.8189L36.9368 26.4203H32.6078Z" fill="#BBB9C5"/>
<path d="M52.5063 26.4203L55.3147 10.4424H59.7196L56.9113 26.4203H52.5063Z" fill="#BBB9C5"/>
<path d="M120.557 10H116.228L114.861 17.6374L111.671 11.222C111.291 10.3819 110.532 10 109.62 10H107.873L104.987 26.4203H109.392L110.759 18.6302L113.949 25.1984C114.329 25.9621 115.165 26.4203 116 26.4203H117.671L120.557 10Z" fill="#BBB9C5"/>
<path d="M53.9494 10H49.6203L48.2532 17.6374L45.1393 11.222C44.6836 10.3819 43.9241 10 43.0127 10H41.3418L38.3798 26.4203H42.7848L44.1519 18.6302L47.3418 25.1983C47.7215 25.9621 48.557 26.4203 49.3924 26.4203H51.0633L53.9494 10Z" fill="#BBB9C5"/>
<path d="M33.2911 14.0478L34.0506 10H26.6835C24.481 10 22.5823 11.5275 22.2025 13.7423L20 26.4967H24.3291L25.4684 19.8522H30.8608L31.5443 15.728H26.2278L26.5316 14.0478H33.2911Z" fill="#BBB9C5"/>
<path d="M80.7595 10L79.5443 16.5681H75.8987L77.1139 10H72.7088L69.8228 26.4203H74.2278L75.2152 20.6159H78.8607L77.7974 26.4203H82.2025L85.0886 10H80.7595Z" fill="#BBB9C5"/>
<path d="M132.481 14.0478L133.24 10H122L119.114 26.4967H130.278L131.038 22.3725H124.203L124.658 19.8522H129.975L130.734 15.728H125.342L125.646 14.0478H132.481Z" fill="#BBB9C5"/>
<path d="M93.0631 22.3725L95.2656 10H90.9365L88.5062 23.7472C88.2024 25.1983 89.3416 26.4967 90.7087 26.4967H97.772L98.4555 22.3725H93.0631Z" fill="#BBB9C5"/>
<path d="M65.4177 14.0478H70.5822L71.2658 10H63.7468C61.3164 10 59.7215 12.444 60.7847 14.5824L64.4303 22.067C64.5063 22.2198 64.4303 22.3725 64.2784 22.3725H59.0379L58.3544 26.4967H65.9493C68.3797 26.4967 69.9746 23.9 68.9113 21.7615L65.2658 14.2769C65.1898 14.2005 65.2658 14.0478 65.4177 14.0478Z" fill="#BBB9C5"/>
<path d="M132.785 26.4968V25.1985H133.089L133.392 26.1913L133.696 25.1985H134V26.4968H133.772V25.4276L133.468 26.4968H133.241L132.937 25.4276V26.4968H132.785ZM132.025 26.4968V25.4276H131.57V25.1985H132.633V25.4276H132.177V26.4968H132.025Z" fill="#BBB9C5"/>
</svg>
