<svg width="154" height="36" viewBox="0 0 154 36" fill="none" xmlns="http://www.w3.org/2000/svg">
<path d="M50.0251 13.285C50.0448 13.3788 49.9758 13.4471 49.9363 13.521C49.5647 14.2091 49.2326 14.9086 48.9597 15.6279C48.7032 16.3103 48.4994 17.0013 48.3876 17.7121C48.233 18.7158 48.233 19.7167 48.5355 20.7033C48.9959 22.2075 50.0284 23.3278 51.6002 24.0813C52.4419 24.485 53.3528 24.721 54.3031 24.8547C55.0955 24.9656 55.8913 24.9769 56.6903 24.9343C57.496 24.8916 58.2884 24.7551 59.071 24.5732C62.162 23.8453 65.2562 23.1231 68.3504 22.3952C71.2999 21.7042 74.2528 21.0104 77.2023 20.3195C79.1292 19.8674 81.0561 19.4181 82.9797 18.9689C83.062 18.949 83.1474 18.9262 83.2264 18.9035C83.2296 18.8381 83.177 18.8552 83.1474 18.8523C83.0291 18.8495 82.9107 18.8495 82.7923 18.8495C80.9312 18.8523 79.07 18.8523 77.2056 18.8552C77.0971 18.8552 76.9886 18.8552 76.9031 18.8552C76.8077 18.7898 76.8242 18.7187 76.8242 18.6533C76.7979 17.6666 76.7749 16.6771 76.7453 15.6905C76.719 14.7636 76.6828 13.8338 76.6532 12.9068C76.6466 12.668 76.6433 12.4291 76.6367 12.1903C76.6367 12.1221 76.6302 12.0567 76.6269 11.9827C76.5249 11.9913 76.5249 12.0595 76.5019 12.1107C76.206 12.7789 75.9133 13.4471 75.6207 14.1153C74.963 15.6109 74.3087 17.1065 73.651 18.6021C73.6149 18.6817 73.5754 18.7585 73.5392 18.8353C73.2959 18.8637 69.2481 18.8665 68.9785 18.8381C68.985 18.8068 68.9883 18.7727 69.0015 18.7414C71.392 13.1826 73.7793 7.62386 76.1665 2.07645C76.4131 2.04801 80.4379 2.04517 80.7733 2.06792C80.8095 2.14469 80.7569 2.21008 80.7273 2.27832C80.4347 2.94652 80.1387 3.61471 79.8461 4.2829C79.4909 5.08473 79.1391 5.8894 78.7873 6.69407C78.7544 6.77084 78.6886 6.84193 78.7215 6.94998C78.9385 6.78506 79.0898 6.58603 79.2673 6.40689C79.4416 6.23345 79.606 6.05147 79.777 5.87519C79.9513 5.69037 80.1288 5.50839 80.3031 5.32357C80.4774 5.13875 80.655 4.95678 80.8292 4.77196C81.0002 4.59567 81.1679 4.41654 81.3356 4.24025C81.5099 4.05543 81.6875 3.87345 81.8617 3.68864C82.036 3.50382 82.2136 3.32184 82.3879 3.13702C82.5556 2.96073 82.7266 2.7816 82.8943 2.60531C83.0685 2.42334 83.2461 2.24136 83.4237 2.05654C88.0666 2.05654 92.6932 2.05654 97.323 2.05654C97.3493 2.05654 97.3756 2.07076 97.4184 2.08213C97.4019 2.12763 97.3921 2.16743 97.3756 2.2044C96.9909 3.07731 96.6062 3.95307 96.2247 4.81461C96.1031 4.86579 95.9913 4.84588 95.886 4.84588C94.5576 4.84873 93.2259 4.84588 91.8974 4.84588C91.7889 4.84588 91.6837 4.85157 91.585 4.85157C91.4436 5.07051 90.1349 8.13851 90.0856 8.36313C90.1843 8.41147 90.2928 8.38872 90.3947 8.38872C91.6146 8.39156 92.8379 8.38872 94.0578 8.38872C94.1663 8.38872 94.2715 8.38872 94.3702 8.38872C94.4491 8.46833 94.3965 8.53089 94.3702 8.5906C94.1005 9.2133 93.8342 9.83315 93.5646 10.4559C93.4396 10.743 93.3147 11.0302 93.1897 11.3145C93.1634 11.3771 93.1272 11.4397 93.1009 11.4937C92.9858 11.5477 92.8773 11.5278 92.7688 11.5278C91.5193 11.5306 90.2665 11.5278 89.0169 11.5278C88.9117 11.5278 88.8032 11.5306 88.7013 11.5335C88.6717 11.579 88.6454 11.6046 88.6322 11.6358C88.0765 12.9182 87.5241 14.2034 86.9684 15.4858C86.9585 15.5085 86.9618 15.5341 86.9618 15.5682C87.0604 15.6222 87.1722 15.5967 87.2742 15.5967C88.8098 15.5995 90.3487 15.5967 91.8843 15.5995C91.9928 15.5995 92.098 15.6023 92.2295 15.6052C92.2197 15.6763 92.223 15.736 92.1999 15.7872C92.0881 16.0687 91.9698 16.3473 91.8547 16.6288C91.8251 16.6999 91.7955 16.771 91.7692 16.8449C91.8481 16.9075 91.927 16.8705 91.9961 16.8563C92.3676 16.771 92.7359 16.6828 93.1075 16.5975C97.3099 15.6137 101.515 14.6299 105.718 13.6461C107.852 13.1457 109.986 12.6452 112.123 12.1477C112.229 12.1221 112.334 12.0993 112.439 12.0908C112.505 12.0851 112.577 12.0965 112.64 12.1107C112.732 12.1334 112.748 12.2045 112.689 12.2728C112.617 12.3609 112.515 12.4092 112.406 12.4519C112.255 12.5116 112.1 12.5685 111.946 12.6253C104.682 15.3493 97.4184 18.0732 90.1514 20.7943C83.8413 23.1572 77.5311 25.5143 71.2177 27.8686C67.7684 29.1538 64.3125 30.4305 60.8565 31.7043C59.3834 32.2503 57.8971 32.7706 56.3878 33.2398C55.2567 33.5895 54.1124 33.8909 52.9319 34.1013C52.3038 34.2122 51.6725 34.2946 51.0379 34.3487C50.3967 34.4027 49.7587 34.4141 49.1208 34.3828C47.263 34.2918 45.5465 33.8198 44.0109 32.8986C43.6952 32.7109 43.3927 32.5033 43.0968 32.2929C42.1103 31.5821 41.479 30.6779 41.1896 29.5974C41.0153 28.9463 40.966 28.2866 41.0219 27.6184C41.1173 26.4697 41.456 25.3722 41.9097 24.2974C42.4622 22.9894 43.179 21.7497 43.978 20.5441C45.0895 18.8722 46.3423 17.2856 47.7003 15.7559C48.3777 14.9939 49.0879 14.2489 49.7851 13.5011C49.8574 13.4243 49.91 13.3277 50.0317 13.2935L50.0251 13.285ZM81.4047 17.5756C81.4244 17.5785 81.4441 17.5813 81.4606 17.5842C81.5066 17.4818 81.5559 17.3823 81.5987 17.2799C83.3447 13.2509 85.0908 9.21898 86.8368 5.18993C87.1887 4.37673 87.5405 3.56637 87.8891 2.75317C87.922 2.67924 87.9779 2.60531 87.9515 2.49726C87.8792 2.55697 87.82 2.59962 87.7707 2.64796C87.3728 3.02613 86.9749 3.4043 86.5771 3.77962C84.8146 5.45437 83.0521 7.12911 81.2863 8.80101C81.1581 8.92327 81.0759 9.0427 81.1087 9.20761C81.112 9.22467 81.1087 9.24173 81.112 9.25879C81.1482 10.3222 81.1877 11.3856 81.2238 12.4491C81.2699 13.8963 81.3159 15.3436 81.3586 16.788C81.3652 16.9928 81.3718 17.1975 81.3817 17.3994C81.3817 17.4619 81.3948 17.5188 81.4047 17.5756Z" fill="#BBB9C5"/>
<path d="M62.9281 18.8495C61.2741 18.8495 59.6497 18.8495 58.0056 18.8495C57.9991 18.804 57.9859 18.7642 57.9892 18.7272C58.0286 18.1756 58.0714 17.624 58.1141 17.0695C58.1404 16.7027 58.1668 16.3388 58.1931 15.972C58.2227 15.5739 58.2555 15.173 58.2851 14.7749C58.3049 14.5276 58.3213 14.283 58.341 14.0357C58.4002 13.2367 58.4594 12.4405 58.5186 11.6444C58.4364 11.6188 58.4298 11.6671 58.4134 11.7012C58.1569 12.2898 57.9037 12.8812 57.6472 13.4698C56.9106 15.1758 56.1741 16.8819 55.4375 18.5879C55.4014 18.6732 55.3553 18.7585 55.3093 18.858C53.8263 18.858 52.3499 18.858 50.8735 18.858C50.8373 18.858 50.8011 18.8466 50.7485 18.8381C50.7682 18.7784 50.7847 18.7301 50.8044 18.6846C53.2048 13.1485 55.6085 7.61248 57.9991 2.09635C58.0319 2.07645 58.0385 2.07076 58.0484 2.06792C58.0582 2.06507 58.0681 2.06223 58.078 2.06223C59.5938 2.05938 61.113 2.05938 62.6289 2.05654C62.6881 2.05654 62.7473 2.05654 62.8064 2.06223C62.8262 2.06223 62.8426 2.0736 62.8722 2.08213C62.9248 2.14469 62.8985 2.2243 62.8919 2.29538C62.836 3.07731 62.7768 3.85924 62.7177 4.64116C62.6585 5.43162 62.5993 6.22208 62.5401 7.01253C62.4908 7.64945 62.4382 8.28636 62.3888 8.92327C62.3757 9.07397 62.3625 9.22752 62.379 9.4038C62.471 9.35262 62.4842 9.28438 62.5072 9.22751C62.7637 8.63894 63.0202 8.04752 63.2767 7.45894C64.0231 5.7387 64.7728 4.01846 65.5192 2.29823C65.5521 2.21861 65.5949 2.14469 65.6277 2.07645C65.973 2.04801 69.9386 2.0537 70.1655 2.08213C70.1688 2.10488 70.1787 2.13331 70.1688 2.15606C67.7585 7.712 65.3482 13.2708 62.9281 18.8495Z" fill="#BBB9C5"/>
<path d="M63.5726 18.8353C63.5726 18.8097 63.5627 18.7812 63.5726 18.7613C65.973 13.2253 68.3734 7.6921 70.7738 2.15606C70.787 2.12478 70.81 2.09919 70.8264 2.07645C71.0731 2.05085 75.0387 2.04517 75.3576 2.07076C75.3872 2.17028 75.3215 2.24989 75.2853 2.33519C74.9039 3.21948 74.5191 4.10377 74.1377 4.98805C72.168 9.52891 70.1984 14.0669 68.2287 18.6078C68.1959 18.6874 68.1564 18.7642 68.1235 18.8353C67.867 18.8665 63.8225 18.8694 63.5726 18.8353Z" fill="#BBB9C5"/>
<path d="M99.2565 3.68579C98.6909 3.68863 98.3161 3.37871 98.2404 3.00054C98.1648 2.62237 98.3687 2.25842 98.7731 2.0935C99.0756 1.97124 99.3814 1.9684 99.6872 2.08782C100.088 2.2442 100.319 2.61668 100.24 2.98632C100.157 3.37302 99.8254 3.6403 99.3782 3.67726C99.3321 3.68295 99.2828 3.68295 99.2565 3.68579ZM98.852 3.32184C98.8849 3.35027 98.9112 3.39008 98.9507 3.40145C99.1381 3.46401 99.3321 3.46401 99.5195 3.4043C99.5524 3.39292 99.5754 3.36733 99.6116 3.34459C99.3683 3.27919 99.3716 3.27919 99.24 3.08868C99.2072 3.04035 99.1973 2.97211 99.0987 2.97211C99.0855 3.07731 99.0723 3.18251 99.0625 3.28488C98.977 3.30194 98.9112 3.31331 98.8488 3.32753C98.8027 2.98348 98.8159 2.59962 98.8816 2.41196C99.0493 2.3949 99.2269 2.39774 99.4012 2.41196C99.5163 2.42049 99.605 2.47452 99.6445 2.57119C99.6872 2.67639 99.6708 2.77307 99.5755 2.85268C99.536 2.8868 99.4867 2.91239 99.4406 2.94083C99.5196 3.07447 99.5952 3.1882 99.6872 3.29625C99.9931 3.06309 100.029 2.70199 99.7826 2.45177C99.559 2.22714 99.171 2.17312 98.8718 2.32382C98.5068 2.50864 98.4838 2.84131 98.5824 3.07731C98.6317 3.1882 98.6909 3.29909 98.852 3.32184ZM99.0921 2.54276C99.0921 2.61668 99.0855 2.65933 99.0954 2.6963C99.0987 2.7162 99.1217 2.75032 99.1381 2.75317C99.2006 2.75601 99.2729 2.75601 99.3288 2.73895C99.4012 2.7162 99.3979 2.59962 99.3255 2.57688C99.2664 2.55413 99.1973 2.55413 99.0921 2.54276Z" fill="#BBB9C5"/>
<path d="M53.07 23.5211C52.751 23.524 52.5044 23.45 52.3006 23.288C51.8862 22.9553 51.8665 22.1563 52.6392 21.8976C52.8957 21.8123 53.1588 21.8151 53.4185 21.8976C53.8362 22.0312 54.0861 22.3923 54.0367 22.7932C53.9874 23.1685 53.6454 23.4643 53.2048 23.5126C53.1456 23.5183 53.0864 23.5211 53.07 23.5211ZM53.458 23.1486C53.7244 22.9951 53.7737 22.7733 53.7046 22.5231C53.6356 22.2757 53.3922 22.0994 53.093 22.0767C52.7938 22.0539 52.5143 22.1847 52.386 22.4094C52.2578 22.6368 52.3038 22.9212 52.4978 23.0975C52.5274 23.1259 52.5833 23.1344 52.6261 23.1515C52.6392 23.1714 52.6491 23.2027 52.6688 23.2112C52.9483 23.3221 53.2147 23.3363 53.458 23.1486Z" fill="#BBB9C5"/>
<path d="M50.0317 13.2907C50.035 13.2765 50.0382 13.2651 50.0415 13.2509C50.0514 13.2566 50.058 13.2651 50.0678 13.2708C50.0547 13.2765 50.0415 13.2793 50.0251 13.285L50.0317 13.2907Z" fill="#BBB9C5"/>
<path d="M98.8488 3.32753C98.9145 3.31331 98.9803 3.30194 99.0625 3.28488C99.0756 3.18251 99.0888 3.07731 99.0987 2.97211C99.1973 2.97211 99.2072 3.04035 99.24 3.08868C99.3683 3.27919 99.3683 3.27919 99.6116 3.34459C99.5754 3.36733 99.5524 3.39577 99.5195 3.4043C99.3288 3.46685 99.1381 3.46685 98.9507 3.40145C98.9112 3.38724 98.8849 3.34743 98.852 3.32184L98.8488 3.32753Z" fill="#BBB9C5"/>
<path d="M99.0921 2.54276C99.2006 2.55697 99.2664 2.55413 99.3255 2.57403C99.3979 2.59962 99.3979 2.71336 99.3288 2.73611C99.2696 2.75601 99.2006 2.75317 99.1381 2.75032C99.1217 2.75032 99.0987 2.7162 99.0954 2.69346C99.0855 2.65649 99.0921 2.61668 99.0921 2.54276Z" fill="#BBB9C5"/>
<path d="M53.458 23.1486C53.2147 23.3335 52.9483 23.3192 52.6721 23.2084C52.6524 23.1998 52.6425 23.1685 52.6294 23.1486L52.6261 23.1543C52.7017 23.143 52.7741 23.1316 52.8398 23.1231C52.899 23.0122 52.8365 22.8984 52.9023 22.7847C53.0536 22.8871 53.0634 23.052 53.1917 23.1316C53.2903 23.1401 53.3758 23.1486 53.4613 23.1543L53.458 23.1486Z" fill="#BBB9C5"/>
<path d="M53.4613 23.1572C53.3758 23.1486 53.287 23.143 53.1917 23.1344C53.0634 23.052 53.0536 22.8871 52.9023 22.7875C52.8365 22.9013 52.899 23.015 52.8398 23.1259C52.7741 23.1344 52.6984 23.1458 52.6261 23.1572C52.6129 22.8643 52.6162 22.5686 52.6228 22.2672C52.83 22.2189 53.024 22.2331 53.2114 22.253C53.3232 22.2644 53.412 22.3269 53.435 22.4293C53.4613 22.5316 53.4547 22.6312 53.3429 22.7022C53.3067 22.725 53.2673 22.7506 53.2245 22.7762C53.31 22.9041 53.3857 23.0321 53.4613 23.1572ZM53.1621 22.4861C53.1588 22.4179 53.0996 22.3809 52.9911 22.3838C52.9056 22.3838 52.8694 22.4179 52.8727 22.4947C52.8727 22.5743 52.922 22.6056 53.0305 22.597C53.1193 22.5885 53.1686 22.5487 53.1621 22.4861Z" fill="#BBB9C5"/>
<path d="M53.1621 22.4861C53.1654 22.5487 53.1193 22.5885 53.0305 22.5942C52.922 22.6027 52.8727 22.5714 52.8727 22.4918C52.8727 22.4122 52.9056 22.3809 52.9911 22.3809C53.0996 22.3809 53.1588 22.4179 53.1621 22.4861Z" fill="#BBB9C5"/>
</svg>
