<svg width="94" height="94" viewBox="0 0 94 94" fill="none" xmlns="http://www.w3.org/2000/svg">
<rect x="2" y="2" width="90" height="90" rx="6" fill="#352B63"/>
<g filter="url(#filter0_f)">
<circle cx="47" cy="47" r="19" fill="#664BFF"/>
</g>
<path fill-rule="evenodd" clip-rule="evenodd" d="M36.6367 43.7416C37.5056 40.408 42.391 40.408 43.2598 43.7416C43.4936 44.6386 44.5076 45.1121 45.3768 44.73C48.6068 43.3101 51.6528 47.0132 49.5062 49.7503C48.9286 50.4868 49.179 51.5506 50.0291 51.9712C53.188 53.5342 52.1009 58.1519 48.5553 58.2314C47.6012 58.2527 46.8995 59.1058 47.0903 60.0124C47.7994 63.3814 43.3978 65.4364 41.1231 62.7984C40.511 62.0886 39.3856 62.0886 38.7735 62.7984C36.4987 65.4364 32.0972 63.3814 32.8063 60.0124C32.9971 59.1058 32.2954 58.2527 31.3413 58.2314C27.7957 58.1519 26.7086 53.5342 29.8675 51.9712C30.7175 51.5506 30.968 50.4868 30.3903 49.7503C28.2438 47.0132 31.2898 43.3101 34.5198 44.73C35.3889 45.1121 36.4029 44.6386 36.6367 43.7416ZM39.9484 56.6874C42.0298 56.6874 43.7171 55.0515 43.7171 53.0335C43.7171 51.0156 42.0298 49.3797 39.9484 49.3797C37.867 49.3797 36.1797 51.0156 36.1797 53.0335C36.1797 55.0515 37.867 56.6874 39.9484 56.6874Z" fill="url(#paint0_linear)"/>
<path fill-rule="evenodd" clip-rule="evenodd" d="M54.6519 32.7502C55.2725 30.4166 58.762 30.4166 59.3826 32.7502C59.5496 33.3781 60.2739 33.7095 60.8947 33.442C63.2019 32.4481 65.3776 35.0403 63.8443 36.9562C63.4318 37.4718 63.6106 38.2164 64.2178 38.5109C66.4742 39.605 65.6977 42.8374 63.1651 42.893C62.4836 42.9079 61.9824 43.5051 62.1187 44.1397C62.6252 46.498 59.4812 47.9365 57.8564 46.0899C57.4192 45.593 56.6153 45.593 56.1781 46.0899C54.5533 47.9365 51.4093 46.498 51.9158 44.1397C52.0521 43.5051 51.5509 42.9079 50.8694 42.893C48.3368 42.8374 47.5603 39.605 49.8167 38.5108C50.4238 38.2164 50.6027 37.4718 50.1901 36.9562C48.6569 35.0403 50.8326 32.4481 53.1397 33.442C53.7606 33.7095 54.4849 33.3781 54.6519 32.7502ZM57.0173 41.8122C58.504 41.8122 59.7093 40.6671 59.7093 39.2545C59.7093 37.8419 58.504 36.6968 57.0173 36.6968C55.5306 36.6968 54.3254 37.8419 54.3254 39.2545C54.3254 40.6671 55.5306 41.8122 57.0173 41.8122Z" fill="url(#paint1_linear)"/>
<defs>
<filter id="filter0_f" x="0" y="0" width="94" height="94" filterUnits="userSpaceOnUse" color-interpolation-filters="sRGB">
<feFlood flood-opacity="0" result="BackgroundImageFix"/>
<feBlend mode="normal" in="SourceGraphic" in2="BackgroundImageFix" result="shape"/>
<feGaussianBlur stdDeviation="14" result="effect1_foregroundBlur"/>
</filter>
<linearGradient id="paint0_linear" x1="65.5963" y1="65.9412" x2="43.1394" y2="35.9258" gradientUnits="userSpaceOnUse">
<stop stop-color="#8E7AFF"/>
<stop offset="1" stop-color="#AC9DFF"/>
</linearGradient>
<linearGradient id="paint1_linear" x1="65.5963" y1="65.9412" x2="43.1394" y2="35.9258" gradientUnits="userSpaceOnUse">
<stop stop-color="#8E7AFF"/>
<stop offset="1" stop-color="#AC9DFF"/>
</linearGradient>
</defs>
</svg>
