<svg width="32" height="32" viewBox="0 0 32 32" fill="none" xmlns="http://www.w3.org/2000/svg">
<g clip-path="url(#clip0)">
<path d="M16 22.0001C15.8027 22.0001 15.6147 21.9121 15.488 21.7601C10.8494 16.1921 10.8494 9.80674 15.488 4.23874C15.74 3.93474 16.2587 3.93474 16.512 4.23874C21.1507 9.80674 21.1507 16.1921 16.512 21.7601C16.3854 21.9121 16.1974 22.0001 16 22.0001ZM16 5.73741C12.4334 10.4467 12.4334 15.5534 16 20.2627C19.5667 15.5534 19.5667 10.4467 16 5.73741Z" fill="white"/>
<path d="M16.0001 28C15.8027 28 15.6147 27.912 15.4881 27.76C14.3974 26.4507 13.5494 25.068 12.9694 23.652C12.8307 23.3107 12.9934 22.9214 13.3334 22.7827C13.6747 22.644 14.0641 22.8067 14.2027 23.1467C14.6361 24.208 15.2387 25.252 15.9987 26.26C16.7574 25.252 17.3601 24.208 17.7947 23.1467C17.9334 22.8067 18.3227 22.6427 18.6641 22.7827C19.0054 22.9214 19.1681 23.3107 19.0281 23.652C18.4481 25.068 17.6014 26.4507 16.5094 27.76C16.3854 27.912 16.1974 28 16.0001 28Z" fill="white"/>
<path d="M16.0121 21.9866C15.6721 21.9866 15.3815 21.7266 15.3495 21.3813C15.3161 21.0146 15.5855 20.6893 15.9521 20.6559C22.2881 20.0693 25.7721 16.8279 26.5788 10.7559C23.6615 11.1493 21.3748 12.1733 19.7695 13.8013C19.5081 14.0639 19.0855 14.0666 18.8268 13.8079C18.5641 13.5493 18.5615 13.1279 18.8188 12.8653C20.7988 10.8573 23.6428 9.67059 27.2735 9.33592C27.4668 9.31459 27.6655 9.38792 27.8055 9.52792C27.9441 9.66792 28.0161 9.86259 27.9988 10.0599C27.3441 17.3013 23.3321 21.3119 16.0761 21.9839C16.0535 21.9866 16.0321 21.9866 16.0121 21.9866Z" fill="white"/>
<path d="M23.3415 25.3414C20.7548 25.3414 18.1668 24.3587 15.5948 22.3907C15.3015 22.168 15.2468 21.7494 15.4695 21.456C15.6948 21.1627 16.1121 21.1094 16.4041 21.332C21.0655 24.8974 25.6041 24.9027 30.2641 21.3427C28.1481 19.732 26.0295 18.8494 23.9561 18.7134C23.5895 18.6894 23.3121 18.372 23.3348 18.004C23.3601 17.6374 23.6428 17.3574 24.0441 17.3827C26.6135 17.5507 29.2095 18.7107 31.7588 20.828C31.9121 20.9547 32.0001 21.1427 32.0001 21.34C32.0001 21.5387 31.9135 21.7267 31.7601 21.8534C28.9695 24.1787 26.1548 25.3414 23.3415 25.3414Z" fill="white"/>
<path d="M8.65867 25.3414C5.84533 25.3414 3.03067 24.1788 0.24 21.8534C0.0866667 21.7268 0 21.5388 0 21.3401C0 21.1428 0.088 20.9548 0.241333 20.8281C2.79067 18.7108 5.38667 17.5508 7.956 17.3828C8.35067 17.3548 8.64133 17.6374 8.66533 18.0041C8.68933 18.3708 8.412 18.6894 8.044 18.7134C5.96933 18.8494 3.85067 19.7334 1.736 21.3428C6.39333 24.9028 10.9347 24.8974 15.596 21.3321C15.888 21.1094 16.3067 21.1628 16.5307 21.4561C16.7533 21.7481 16.6987 22.1668 16.4053 22.3908C13.8333 24.3574 11.2467 25.3414 8.65867 25.3414Z" fill="white"/>
<path d="M15.988 21.9866C15.9667 21.9866 15.9467 21.9866 15.9253 21.9839C8.66933 21.3119 4.65733 17.2999 4.00266 10.0599C3.984 9.86392 4.056 9.66792 4.196 9.52792C4.336 9.38792 4.52933 9.31459 4.728 9.33592C8.35866 9.66926 11.2013 10.8573 13.1827 12.8653C13.44 13.1279 13.4373 13.5493 13.1747 13.8079C12.9147 14.0666 12.492 14.0639 12.232 13.8013C10.6267 12.1733 8.33866 11.1506 5.42133 10.7559C6.22666 16.8279 9.712 20.0693 16.048 20.6559C16.4147 20.6893 16.6853 21.0146 16.6507 21.3813C16.6187 21.7266 16.328 21.9866 15.988 21.9866Z" fill="white"/>
</g>
<defs>
<clipPath id="clip0">
<rect width="32" height="32" fill="white"/>
</clipPath>
</defs>
</svg>
