<svg width="72" height="72" viewBox="0 0 72 72" fill="none" xmlns="http://www.w3.org/2000/svg">
<path d="M36 49.4999C35.556 49.4999 35.133 49.3019 34.848 48.9599C24.411 36.4319 24.411 22.0649 34.848 9.53693C35.415 8.85293 36.582 8.85293 37.152 9.53693C47.589 22.0649 47.589 36.4319 37.152 48.9599C36.867 49.3019 36.444 49.4999 36 49.4999ZM36 12.9089C27.975 23.5049 27.975 34.9949 36 45.5909C44.025 34.9949 44.025 23.5049 36 12.9089Z" fill="white"/>
<path d="M36 63C35.556 63 35.133 62.802 34.848 62.46C32.394 59.514 30.486 56.403 29.181 53.217C28.869 52.449 29.235 51.573 30 51.261C30.768 50.949 31.644 51.315 31.956 52.08C32.931 54.468 34.287 56.817 35.997 59.085C37.704 56.817 39.06 54.468 40.038 52.08C40.35 51.315 41.226 50.946 41.994 51.261C42.762 51.573 43.128 52.449 42.813 53.217C41.508 56.403 39.603 59.514 37.146 62.46C36.867 62.802 36.444 63 36 63Z" fill="white"/>
<path d="M36.0271 49.4698C35.2621 49.4698 34.6081 48.8848 34.5361 48.1078C34.4611 47.2828 35.0671 46.5508 35.8921 46.4758C50.1481 45.1558 57.9871 37.8628 59.8021 24.2008C53.2381 25.0858 48.0931 27.3898 44.4811 31.0528C43.8931 31.6438 42.9421 31.6498 42.3601 31.0678C41.7691 30.4858 41.7631 29.5378 42.3421 28.9468C46.7971 24.4288 53.1961 21.7588 61.3651 21.0058C61.8001 20.9578 62.2471 21.1228 62.5621 21.4378C62.8741 21.7528 63.0361 22.1908 62.9971 22.6348C61.5241 38.9278 52.4971 47.9518 36.1711 49.4638C36.1201 49.4698 36.0721 49.4698 36.0271 49.4698Z" fill="white"/>
<path d="M52.518 57.018C46.698 57.018 40.875 54.807 35.088 50.379C34.428 49.878 34.305 48.936 34.806 48.276C35.313 47.616 36.252 47.496 36.909 47.997C47.397 56.019 57.609 56.031 68.094 48.021C63.333 44.397 58.566 42.411 53.901 42.105C53.076 42.051 52.452 41.337 52.503 40.509C52.56 39.684 53.196 39.054 54.099 39.111C59.88 39.489 65.721 42.099 71.457 46.863C71.802 47.148 72 47.571 72 48.015C72 48.462 71.805 48.885 71.46 49.17C65.181 54.402 58.848 57.018 52.518 57.018Z" fill="white"/>
<path d="M19.482 57.0182C13.152 57.0182 6.819 54.4022 0.54 49.1702C0.195 48.8852 0 48.4622 0 48.0152C0 47.5712 0.198 47.1482 0.543 46.8632C6.279 42.0992 12.12 39.4892 17.901 39.1112C18.789 39.0482 19.443 39.6842 19.497 40.5092C19.551 41.3342 18.927 42.0512 18.099 42.1052C13.431 42.4112 8.664 44.4002 3.906 48.0212C14.385 56.0312 24.603 56.0192 35.091 47.9972C35.748 47.4962 36.69 47.6162 37.194 48.2762C37.695 48.9332 37.572 49.8752 36.912 50.3792C31.125 54.8042 25.305 57.0182 19.482 57.0182Z" fill="white"/>
<path d="M35.9729 49.4698C35.9249 49.4698 35.8799 49.4698 35.8319 49.4638C19.5059 47.9518 10.4789 38.9248 9.00593 22.6348C8.96393 22.1938 9.12593 21.7528 9.44093 21.4378C9.75593 21.1228 10.1909 20.9578 10.6379 21.0058C18.8069 21.7558 25.2029 24.4288 29.6609 28.9468C30.2399 29.5378 30.2339 30.4858 29.6429 31.0678C29.0579 31.6498 28.1069 31.6438 27.5219 31.0528C23.9099 27.3898 18.7619 25.0888 12.1979 24.2008C14.0099 37.8628 21.8519 45.1558 36.1079 46.4758C36.9329 46.5508 37.5419 47.2828 37.4639 48.1078C37.3919 48.8848 36.7379 49.4698 35.9729 49.4698Z" fill="white"/>
</svg>
