<svg width="154" height="36" viewBox="0 0 154 36" fill="none" xmlns="http://www.w3.org/2000/svg">
<path d="M50.9413 10.0449C46.0641 10.0449 42 12.1141 42 18.3565C42 23.302 44.7328 26.4163 51.0672 26.4163C58.5231 26.4163 59.0011 21.5049 59.0011 21.5049H55.3883C55.3883 21.5049 54.6137 24.1495 50.8468 24.1495C47.7788 24.1495 45.5722 22.077 45.5722 19.172H59.3789V17.3491C59.3789 14.4752 57.5544 10.0449 50.9413 10.0449ZM50.8154 12.3747C53.7358 12.3747 55.7268 14.1638 55.7268 16.8453H45.6521C45.6521 13.9986 48.2508 12.3747 50.8154 12.3747Z" fill="#BBB9C5"/>
<path d="M59.3762 4V23.2813C59.3762 24.3757 59.2981 25.9125 59.2981 25.9125H62.7439C62.7439 25.9125 62.8676 24.8088 62.8676 23.8001C62.8676 23.8001 64.57 26.4634 69.199 26.4634C74.0736 26.4634 77.3847 23.0792 77.3847 18.2305C77.3847 13.7199 74.3434 10.092 69.2069 10.092C64.397 10.092 62.9024 12.6894 62.9024 12.6894V4H59.3762ZM68.3175 12.4769C71.6277 12.4769 73.7327 14.9337 73.7327 18.2305C73.7327 21.7658 71.3015 24.0786 68.3411 24.0786C64.8081 24.0786 62.9024 21.32 62.9024 18.262C62.9024 15.4125 64.6125 12.4769 68.3175 12.4769Z" fill="#BBB9C5"/>
<path d="M85.9484 10.0449C78.6111 10.0449 78.1405 14.0625 78.1405 14.7045H81.7926C81.7926 14.7045 81.9841 12.359 85.6965 12.359C88.1089 12.359 89.9783 13.4631 89.9783 15.586V16.3416H85.6965C80.0122 16.3416 77.0071 18.0045 77.0071 21.379C77.0071 24.6999 79.7837 26.5068 83.536 26.5068C88.6497 26.5068 90.297 23.6812 90.297 23.6812C90.297 24.8051 90.3837 25.9126 90.3837 25.9126H93.6303C93.6303 25.9126 93.5044 24.5398 93.5044 23.6615V16.0701C93.5044 11.0925 89.4894 10.0449 85.9484 10.0449ZM89.9783 18.6084V19.6159C89.9783 20.9299 89.1674 24.1967 84.3939 24.1967C81.7799 24.1967 80.6592 22.8922 80.6592 21.379C80.6592 18.6261 84.4334 18.6084 89.9783 18.6084Z" fill="#BBB9C5"/>
<path d="M91.538 10.675H95.6466L101.543 22.4881L107.426 10.675H111.148L100.432 31.706H96.5281L99.6202 25.8433L91.538 10.675Z" fill="#BBB9C5"/>
</svg>
