<svg width="154" height="36" viewBox="0 0 154 36" fill="none" xmlns="http://www.w3.org/2000/svg">
<path d="M43.1301 8.41414C42.9996 8.40469 40.4434 8.37118 40.4434 8.37118C40.4434 8.37118 38.3057 6.57978 38.0945 6.39755C38.0158 6.32964 37.9092 6.29439 37.7976 6.27979L37.7986 33.6827L47.3788 31.6283C47.3788 31.6283 43.4698 8.82333 43.4449 8.66687C43.42 8.5104 43.2606 8.42359 43.1301 8.41414Z" fill="#BBB9C5"/>
<path fill-rule="evenodd" clip-rule="evenodd" d="M43.1291 8.41333C43.2606 8.42278 43.419 8.50958 43.4439 8.66605C43.4688 8.82252 47.3778 31.6283 47.3778 31.6283L37.7967 33.6836L15.6908 30.3845C15.6908 30.3845 18.3286 12.7835 18.4263 12.1637C18.5578 11.3437 18.5896 11.317 19.5978 11.0437C19.6192 11.0377 20.2987 10.8561 21.3803 10.5671C21.8569 10.4397 22.4117 10.2915 23.0226 10.1282C23.2357 8.81049 23.9879 7.10848 24.9761 5.75376C26.3807 3.82828 28.113 2.74434 29.8523 2.70136C30.7538 2.67815 31.5059 2.94204 32.0926 3.48358C32.1345 3.52313 32.1743 3.56353 32.2142 3.60479C32.2242 3.60405 32.2342 3.60331 32.2441 3.60257C32.3276 3.59635 32.4104 3.59018 32.4941 3.59018H32.4991C33.8459 3.59189 34.9606 4.25464 35.7216 5.50792C35.9577 5.89645 36.1231 6.28327 36.2357 6.59788C36.4072 6.55207 36.5609 6.51101 36.6948 6.47524C37.086 6.37074 37.3081 6.31142 37.3095 6.31078C37.4699 6.26952 37.8824 6.2145 38.0935 6.39674C38.3047 6.57897 40.4425 8.37037 40.4425 8.37037C40.4425 8.37037 42.9987 8.40388 43.1291 8.41333ZM34.028 7.1876C34.4217 7.08242 34.7907 6.98382 35.129 6.89358C34.855 6.12511 34.2055 4.83658 32.8856 4.62082C33.296 5.53457 33.4006 6.59186 33.4135 7.35174C33.6241 7.2955 33.8292 7.24071 34.028 7.1876ZM28.5662 8.64715L32.257 7.66119C32.269 6.83169 32.1643 5.60505 31.6832 4.73858C31.1712 4.92082 30.7389 5.23973 30.4301 5.52597C29.5993 6.29531 28.9228 7.46864 28.5662 8.64715ZM30.9331 3.93659C30.6392 3.76983 30.2955 3.69246 29.8871 3.7002C27.2024 3.76725 24.8605 7.38527 24.2618 9.79644C24.8114 9.64997 25.3884 9.4957 25.9815 9.33716C26.4117 9.22213 26.8504 9.10486 27.2931 8.98668C27.6308 7.45489 28.4775 5.86723 29.5823 4.84432C30.0086 4.44977 30.4629 4.14719 30.9331 3.93659ZM31.3744 16.2572L32.487 12.665C32.487 12.665 31.5278 12.2524 29.653 12.3564C24.7867 12.6211 22.5812 15.5575 22.7934 18.4551C22.935 20.3896 24.2557 21.1982 25.4134 21.907C26.3164 22.46 27.1202 22.9521 27.1875 23.8706C27.2243 24.3769 26.8597 25.0929 25.8396 25.1488C24.2777 25.2339 22.3262 23.9634 22.3262 23.9634L21.5801 26.702C21.5801 26.702 23.5186 28.4943 27.0401 28.3026C29.9737 28.1427 32.0099 26.1175 31.7938 23.1571C31.6274 20.881 29.7699 19.8532 28.3018 19.0409C27.3426 18.5102 26.5496 18.0714 26.5031 17.4365C26.4812 17.1417 26.5041 15.9675 28.6618 15.8497C30.1331 15.7698 31.3744 16.2572 31.3744 16.2572Z" fill="#BBB9C5"/>
<path d="M59.9946 20.1871C58.8929 19.6713 58.3267 19.2365 58.3267 18.6388C58.3267 17.8783 59.1132 17.3898 60.3414 17.3898C61.7711 17.3898 63.0476 17.9056 63.0476 17.9056L64.0544 15.2438C64.0544 15.2438 63.1286 14.6189 60.4036 14.6189C56.6115 14.6189 53.9833 16.4928 53.9833 19.1273C53.9833 20.621 55.2105 21.7618 56.8476 22.576C58.1697 23.2274 58.6419 23.6895 58.6419 24.3682C58.6419 25.0741 57.981 25.6445 56.7538 25.6445C54.9249 25.6445 53.1978 24.8294 53.1978 24.8294L52.1278 27.4911C52.1278 27.4911 53.7235 28.4145 56.408 28.4145C60.3107 28.4145 63.1119 26.7579 63.1119 23.7705C63.1108 22.1693 61.695 21.0286 59.9946 20.1871Z" fill="#BBB9C5"/>
<path d="M75.5425 14.5922C73.6226 14.5922 72.1119 15.3801 70.948 16.5745L70.8848 16.5472L72.5526 9.0249H68.2091L63.9922 28.1704H68.3356L69.7831 21.626C70.3492 19.1544 71.8283 17.6343 73.2136 17.6343C74.1888 17.6343 74.5672 18.2046 74.5672 19.0197C74.5672 19.5355 74.504 20.1605 74.3785 20.6763L72.7423 28.1713H77.0859L78.7849 20.4316C78.974 19.6165 79.1003 18.6395 79.1003 17.9872C79.0985 15.8686 77.8082 14.5922 75.5425 14.5922Z" fill="#BBB9C5"/>
<path d="M88.9177 14.5923C83.6927 14.5923 80.2319 18.666 80.2319 23.2008C80.2319 26.1064 82.3085 28.4417 86.2115 28.4417C91.3413 28.4417 94.8033 24.4771 94.8033 19.8331C94.8033 17.1449 92.9775 14.5923 88.9177 14.5923ZM86.7777 25.5642C85.2983 25.5642 84.6688 24.478 84.6688 23.1198C84.6688 20.9747 85.9596 17.4715 88.3198 17.4715C89.862 17.4715 90.3647 18.6122 90.3647 19.7257C90.3647 22.0336 89.0757 25.5642 86.7777 25.5642Z" fill="#BBB9C5"/>
<path d="M105.913 14.5923C102.981 14.5923 101.317 16.8192 101.317 16.8192H101.255L101.507 14.8097H97.6674C97.4789 16.1679 97.1318 18.2311 96.7865 19.7794L93.765 33.4932H98.1085L99.3036 27.9531H99.3987C99.3987 27.9531 100.29 28.4416 101.948 28.4416C107.046 28.4416 110.382 23.934 110.382 19.371C110.382 16.8465 109.091 14.5923 105.913 14.5923ZM101.758 25.6178C100.631 25.6178 99.9636 25.0748 99.9636 25.0748L100.688 21.5715C101.192 19.2363 102.608 17.688 104.119 17.688C105.441 17.688 105.849 18.7469 105.849 19.7521C105.849 22.1692 104.181 25.6178 101.758 25.6178Z" fill="#BBB9C5"/>
<path d="M116.582 9.21509C115.197 9.21509 114.096 10.1657 114.096 11.3875C114.096 12.501 114.914 13.2614 116.141 13.2614H116.204C117.558 13.2614 118.722 12.4736 118.753 11.0891C118.753 10.0028 117.904 9.21509 116.582 9.21509Z" fill="#BBB9C5"/>
<path d="M110.508 28.1706H114.85L117.81 14.8916H113.434L110.508 28.1706Z" fill="#BBB9C5"/>
<path d="M128.856 14.8643H125.835L125.992 14.2394C126.244 12.9631 127.125 11.8223 128.573 11.8223C129.345 11.8223 129.957 12.0125 129.957 12.0125L130.807 9.0796C130.807 9.0796 130.051 8.75391 128.446 8.75391C126.904 8.75391 125.363 9.13413 124.197 10.0029C122.718 11.0891 122.026 12.6638 121.68 14.2394L121.555 14.8643H119.54L118.91 17.689H120.925L118.628 28.1714H122.971L125.269 17.689H128.258L128.856 14.8643Z" fill="#BBB9C5"/>
<path d="M139.304 14.8917C139.304 14.8917 136.589 20.7941 135.37 24.0161H135.307C135.224 22.9785 134.237 14.8917 134.237 14.8917H129.673L132.287 27.0845C132.35 27.3556 132.318 27.5193 132.192 27.7094C131.688 28.5509 130.838 29.366 129.831 29.9637C129.013 30.4795 128.1 30.8051 127.377 31.0225L128.573 34.2001C129.454 34.0373 131.279 33.4124 132.821 32.1633C134.804 30.5613 136.629 28.0897 138.517 24.722L143.836 14.8909H139.304V14.8917Z" fill="#BBB9C5"/>
</svg>
