<svg width="154" height="36" viewBox="0 0 154 36" fill="none" xmlns="http://www.w3.org/2000/svg">
<path d="M121 33.0508H31V2H121V33.0508Z" fill="#BBB9C5"/>
<path d="M44.4771 9.57233C43.952 8.66582 43.1893 8.09535 42.0186 8.09535C40.898 8.09535 39.6805 8.95497 39.4898 10.1225C39.0131 13.1514 46.3589 11.8886 45.4055 17.9215C44.8335 21.5241 42.1859 24.0764 38.513 24.0764C36.031 24.0764 34.4337 22.6447 33.5272 20.5691L36.1514 18.3513C36.414 19.7345 37.4627 20.9755 38.9647 20.9755C40.3963 20.9755 41.4935 19.7595 41.7092 18.3763C41.9952 16.5164 40.3729 15.9897 39.0366 15.4411C36.8907 14.4878 35.3637 13.3187 35.8169 10.5288C36.2936 7.54676 38.8943 5.13672 41.9233 5.13672C43.5206 5.13672 45.5962 5.92444 46.5027 7.14196L44.4771 9.57233ZM50.4819 11.887L49.4801 18.231C49.266 19.5673 49.2175 21.1646 50.9117 21.1646C52.6044 21.1646 53.0811 19.5673 53.2968 18.231L54.2971 11.8855H57.637L56.5399 18.778C55.9928 22.1899 53.9407 23.9795 50.4585 23.9795C46.9763 23.9795 45.4962 22.1899 46.0448 18.7796L47.1419 11.887H50.4819ZM66.4629 17.7293C66.7005 16.1554 65.9362 14.4627 64.2201 14.4627C62.5009 14.4627 61.1661 16.1554 60.9286 17.7293C60.6895 19.3047 61.4522 21.0208 63.1698 21.0208C64.8875 21.0208 66.2222 19.3047 66.4614 17.7293H66.4629ZM62.0242 12.9592C62.9307 12.0527 64.2436 11.5057 65.483 11.5057C68.7995 11.5057 70.3499 14.605 69.8482 17.6824C69.3481 20.8786 66.8912 23.9795 63.4324 23.9795C62.2399 23.9795 61.0724 23.4543 60.5457 22.5009H60.4988L59.3531 29.8467H56.0147L58.8514 11.887H62.1899L62.0242 12.9592ZM74.709 13.103H74.7559C75.5905 12.0777 76.6642 11.5041 77.9052 11.5041C78.3819 11.5041 78.8586 11.6245 79.2399 11.7917L78.3584 14.891C77.9829 14.6018 77.5194 14.4506 77.0456 14.4627C74.7324 14.4627 74.1604 16.5133 73.8728 18.3263L73.0382 23.5981H69.6998L71.5597 11.887H74.8996L74.709 13.103ZM86.2043 16.2039C86.2278 15.0113 85.6558 13.8423 84.3679 13.8423C83.0316 13.8423 82.1017 14.9863 81.7437 16.2023L86.2043 16.2039ZM81.3155 18.2779C81.0998 19.758 81.3858 21.4272 83.1285 21.4272C84.2241 21.4272 85.0353 20.7598 85.6323 19.8283L88.6378 20.3284C87.4453 22.6666 85.1791 23.9795 82.7221 23.9795C79.0961 23.9795 77.3081 21.4037 77.8567 17.8496C78.4287 14.2955 80.7419 11.5041 84.5351 11.5041C88.3753 11.5041 89.6397 14.3424 89.0911 17.8731L89.0192 18.2794H81.3139L81.3155 18.2779ZM93.8362 12.9358H93.883C94.2666 12.4939 94.7391 12.138 95.2697 11.8913C95.8003 11.6446 96.377 11.5126 96.962 11.5041C98.4156 11.5041 99.4658 12.1012 100.038 13.3406C100.944 12.1965 102.374 11.5041 103.734 11.5041C106.716 11.5041 107.098 13.7469 106.693 16.2992L105.547 23.5981H102.209L103.186 17.4433C103.353 16.2992 103.783 14.1767 102.137 14.1767C100.324 14.1767 99.9425 16.6321 99.7519 17.8496L98.8454 23.5981H95.5054L96.4353 17.6589C96.6276 16.5133 97.1511 14.1767 95.41 14.1767C93.5501 14.1767 93.2407 16.6087 93.05 17.8496L92.1435 23.5981H88.8035L90.6634 11.887H94.0034L93.8362 12.9358ZM115.611 16.2039C115.636 15.0113 115.064 13.8423 113.775 13.8423C112.44 13.8423 111.508 14.9863 111.152 16.2023L115.611 16.2039ZM110.722 18.2779C110.508 19.758 110.794 21.4272 112.535 21.4272C113.632 21.4272 114.442 20.7598 115.039 19.8283L118.044 20.3284C116.852 22.6666 114.586 23.9795 112.129 23.9795C108.503 23.9795 106.715 21.4037 107.263 17.8496C107.835 14.2955 110.15 11.5041 113.942 11.5041C117.782 11.5041 119.046 14.3424 118.498 17.8731L118.426 18.2794H110.722" fill="#251C4A"/>
</svg>
